<svg width="320" height="319" viewBox="0 0 320 319" fill="none" xmlns="http://www.w3.org/2000/svg">
<path d="M282.58 29.2258L276.675 34.5897L279.827 41.6933L272.534 38.112L266.265 43.1041L267.662 35.527L260.635 31.5087L268.793 30.4069L270.718 22.9317L274.363 29.8273L282.58 29.2258Z" fill="white"/>
<path d="M212.932 43.3992L205.789 43.6943L203.436 49.9913L200.928 43.7456L193.78 43.6037L199.373 39.4498L197.309 33.065L203.273 36.7425L209.146 32.9385L207.239 39.3654L212.932 43.3992Z" fill="white"/>
<path d="M246.555 6.09389L241.862 7.98115L242.002 12.7464L238.628 9.16649L233.812 10.7636L236.42 6.66373L233.303 2.8864L238.289 3.93191L241.178 0L241.652 4.74625L246.555 6.09389Z" fill="white"/>
<path d="M108.725 36.2303L114.346 40.8248L121.004 37.6581L118.056 44.0639L123.342 48.9922L115.9 48.3563L112.508 54.5689L110.856 47.7703L103.474 46.6819L109.896 43.1154L108.725 36.2303Z" fill="white"/>
<path d="M88.8635 5.37228L90.0138 11.443L96.4855 12.6951L90.6519 15.592L91.3743 21.7196L86.618 17.4399L80.593 19.9743L83.4872 14.4327L79.0413 9.87121L85.5867 10.7263L88.8635 5.37228Z" fill="white"/>
<path d="M233.809 69.2904C231.045 62.8986 225.647 57.2797 218.629 55.1212C208.019 51.8575 196.418 57 188.075 63.9301C178.864 71.5817 171.608 83.305 175.262 94.2941C177.372 100.642 182.915 105.682 189.364 108.506C191.948 109.637 194.69 110.393 197.494 110.83C197.952 114.294 198.41 117.759 198.868 121.223C201.237 117.805 203.707 114.448 206.237 111.131C213.518 110.496 220.598 107.72 225.917 103.026C235.439 94.6244 238.713 80.6294 233.809 69.2904Z" fill="#C7B1A4"/>
<path d="M219.168 76.467H190.493V78.3381H219.168V76.467Z" fill="#F5E3CF"/>
<path d="M226.509 84.4201H183.151V86.2912H226.509V84.4201Z" fill="#F5E3CF"/>
<path d="M219.168 92.3732H190.493V94.2443H219.168V92.3732Z" fill="#F5E3CF"/>
<path d="M45.9736 44.2319C44.6832 40.9351 41.2143 38.8118 37.7039 37.5485C30.0601 34.7977 21.2035 35.1307 13.8219 38.4478C8.90359 40.6576 4.55247 44.2761 2.46507 48.9816C0.377668 53.6871 0.873302 59.5126 4.42061 63.3834C8.26095 67.5746 14.7876 68.7761 20.6611 68.162C24.2838 67.7826 27.8137 66.7792 31.0793 65.2721C32.1573 68.2126 34.3125 74.0943 34.3125 74.0943L35.4763 62.8241C35.4763 62.8241 41.2813 58.2409 43.3988 55.3081C45.7506 52.0528 47.4161 47.9185 45.9736 44.2319Z" fill="#FFB204"/>
<path d="M32.3356 44.3513H10.813V45.0153H32.3356V44.3513Z" fill="#176C73"/>
<path d="M38.5044 49.0343L9.40186 49.5637L9.41574 50.2276L38.5183 49.6981L38.5044 49.0343Z" fill="#176C73"/>
<path d="M32.6661 54.7203L15.553 55.2809L15.578 55.9452L32.6911 55.3846L32.6661 54.7203Z" fill="#176C73"/>
<path d="M157.903 198.903C157.903 197.754 153.405 196.689 145.742 195.809C135.577 188.075 115.152 182.79 91.592 182.79C68.6306 182.79 48.641 187.81 38.2296 195.225C27.0332 196.194 20.2 197.485 20.2 198.903C20.2 200.028 24.5096 201.075 31.8898 201.943C31.037 203.551 30.582 205.216 30.582 206.923C30.582 220.252 26.255 234.28 91.592 231.057C156.929 227.832 152.602 220.252 152.602 206.923C152.602 204.986 152.008 203.103 150.918 201.297C155.386 200.574 157.903 199.762 157.903 198.903Z" fill="#AC6E5F"/>
<path d="M59.8696 211.151C56.2838 200.63 53.8883 189.757 52.7358 178.77C52.4435 175.982 51.6954 172.547 48.7982 171.811C47.2999 171.43 45.6683 171.99 44.4818 172.925C43.2954 173.86 42.4743 175.127 41.7037 176.385C38.3364 181.875 35.0557 188.053 28.8914 190.689C27.5121 191.279 26.0191 191.671 24.7754 192.482C23.9761 193.004 23.2929 193.769 22.9893 194.615C22.1336 194.881 21.378 195.439 20.969 196.191C20.5788 196.908 20.5343 197.874 21.149 198.438C21.5294 198.788 22.0937 198.917 22.6278 198.894C23.1611 198.871 23.6756 198.712 24.1825 198.554C24.4462 198.472 24.7107 198.386 24.9721 198.294C25.1951 198.403 25.4262 198.5 25.662 198.589C25.5566 198.665 25.4488 198.739 25.3524 198.824C24.7814 199.325 24.4605 200.26 25.0406 200.751C25.5837 201.212 26.4522 200.928 27.082 200.576C27.4918 200.347 27.8828 200.09 28.2647 199.821C28.1209 200.118 28.105 200.488 28.3174 200.745C28.6542 201.151 29.3276 201.077 29.8481 200.914C30.4643 200.72 31.0406 200.433 31.5853 200.103C31.6297 200.292 31.7239 200.475 31.8881 200.591C32.2866 200.872 32.8433 200.856 33.3269 200.741C34.0885 200.56 34.7786 200.15 35.3029 199.603C35.4535 199.589 35.6049 199.58 35.7556 199.563C34.8652 202.493 34.0749 205.449 33.3985 208.428C32.4147 212.764 31.7464 217.598 34.2587 221.36C36.0237 224.003 39.1703 225.678 42.4479 226.265C45.7263 226.851 49.1312 226.442 52.3486 225.613C55.8175 224.72 59.4665 223.042 60.7524 219.907C61.8989 217.112 60.8413 214.002 59.8696 211.151Z" fill="#FCA175"/>
<path d="M34.6473 199.23C35.5656 198.698 35.9346 197.642 36.2359 196.674C37.2642 193.37 38.2933 190.065 39.3223 186.761C37.3546 190.459 34.4017 193.697 30.8032 196.101C30.0348 196.614 29.1279 197.384 29.4721 198.204C29.6936 198.732 30.3406 198.965 30.9184 199.14C32.1418 199.511 33.555 199.863 34.6473 199.23Z" fill="#E07E58"/>
<path d="M118.532 211.151C122.118 200.63 124.513 189.757 125.666 178.77C125.958 175.982 126.706 172.547 129.604 171.811C131.102 171.43 132.734 171.99 133.92 172.925C135.106 173.86 135.927 175.127 136.698 176.385C140.065 181.875 143.346 188.053 149.51 190.689C150.89 191.279 152.383 191.671 153.626 192.482C154.426 193.004 155.109 193.769 155.413 194.615C156.268 194.881 157.024 195.439 157.433 196.191C157.823 196.908 157.868 197.874 157.253 198.438C156.872 198.788 156.308 198.917 155.774 198.894C155.241 198.871 154.726 198.712 154.219 198.554C153.956 198.472 153.691 198.386 153.43 198.294C153.207 198.403 152.976 198.5 152.74 198.589C152.845 198.665 152.953 198.739 153.049 198.824C153.62 199.325 153.941 200.26 153.361 200.751C152.818 201.212 151.95 200.928 151.32 200.576C150.91 200.347 150.519 200.09 150.137 199.821C150.28 200.118 150.297 200.488 150.084 200.745C149.748 201.151 149.074 201.077 148.554 200.914C147.937 200.72 147.361 200.433 146.817 200.103C146.772 200.292 146.678 200.475 146.514 200.591C146.115 200.872 145.559 200.856 145.075 200.741C144.313 200.56 143.623 200.15 143.099 199.603C142.948 199.589 142.797 199.58 142.646 199.563C143.537 202.493 144.327 205.449 145.003 208.428C145.986 212.764 146.655 217.598 144.142 221.36C142.377 224.003 139.231 225.678 135.953 226.265C132.675 226.851 129.27 226.442 126.053 225.613C122.584 224.72 118.935 223.042 117.649 219.907C116.503 217.112 117.561 214.002 118.532 211.151Z" fill="#FCA175"/>
<path d="M143.755 199.23C142.837 198.698 142.468 197.642 142.166 196.674C141.138 193.37 140.109 190.065 139.081 186.761C141.048 190.459 144.001 193.697 147.6 196.101C148.368 196.614 149.275 197.384 148.93 198.204C148.709 198.732 148.062 198.965 147.484 199.14C146.261 199.511 144.847 199.863 143.755 199.23Z" fill="#E07E58"/>
<path d="M61.0934 70.9655C58.9601 67.661 59.6027 59.1416 60.3221 56.9452C61.8332 52.3339 64.3591 48.0535 65.8348 43.4323C66.8329 40.3049 67.3399 37.0419 67.3346 33.7796C67.3331 32.8584 67.2939 31.9162 67.5968 31.0386C68.3011 28.9982 70.72 27.8374 73.0145 27.7187C77.3144 27.4967 81.3159 30.22 83.4974 33.6826C85.6797 37.1451 86.357 41.2401 86.7502 45.2401C87.3001 50.8359 87.4108 56.6094 89.7596 61.7842C90.8466 64.1788 92.4347 66.6345 91.9028 69.1871C91.3213 71.9773 88.4158 73.7654 85.6346 74.9262C81.4861 76.6568 76.9121 77.7297 72.396 77.2561C67.8785 76.7811 63.4377 74.5966 61.0934 70.9655Z" fill="#674138"/>
<path d="M80.4986 76.4045C78.0052 77.1992 75.303 77.8013 72.7546 77.1788C70.5233 76.6336 68.6235 75.17 67.3685 73.3656C66.1135 71.5606 65.4642 69.4344 65.1991 67.2977C64.454 61.2867 66.6205 55.3446 67.8831 49.4088C69.1313 43.5398 69.5019 37.5098 68.9806 31.5466C72.2687 29.7134 76.9423 30.473 79.3724 33.235C81.2994 35.4251 81.7453 38.3958 82.2372 41.1916C83.496 48.3401 85.5284 55.3692 88.2938 62.1383C89.1187 64.1584 90.0256 66.2635 89.7514 68.41C89.4885 70.4673 88.1371 72.3054 86.4098 73.608C84.6832 74.91 82.6003 75.7349 80.4986 76.4045Z" fill="#331827"/>
<path d="M143.063 127.671C143.865 125.989 144.392 124.266 144.72 122.529C138.138 114.956 132.788 106.481 126.942 98.375C120.203 89.0308 112.472 79.9479 102.12 74.1526C99.7283 72.8134 96.6179 71.6772 94.2811 73.098C92.2276 74.3472 91.8254 76.947 91.6197 79.2263C91.2205 83.65 90.8619 88.3078 92.8634 92.3359C94.0213 94.6665 95.8932 96.6128 97.7373 98.5205C108.404 109.555 119.072 120.59 129.738 131.625C130.492 132.405 131.292 133.192 132.148 133.899C136.915 133.704 140.863 131.775 143.063 127.671Z" fill="#FCA175"/>
<path d="M143.063 127.671C143.865 125.989 144.392 124.266 144.72 122.529C138.974 115.918 134.167 108.62 129.148 101.479C122.625 110.217 122.726 122.704 130.111 131.122C131.147 132.089 132.223 132.979 133.328 133.809C137.564 133.36 141.048 131.431 143.063 127.671Z" fill="#331827"/>
<path d="M129.751 102.346C128.823 101.016 127.89 99.6903 126.942 98.3757C120.203 89.0314 112.472 79.9486 102.12 74.1533C99.7283 72.8141 96.6179 71.6779 94.2811 73.0986C92.2276 74.3472 91.8254 76.9476 91.6197 79.2263C91.2205 83.65 90.8619 88.3077 92.8634 92.3359C94.0213 94.6665 95.8932 96.6128 97.7373 98.5204C104.173 105.178 110.607 111.835 117.043 118.492C119.682 112.184 123.829 106.556 129.751 102.346Z" fill="#FFB204"/>
<path d="M91.5352 87.9227C91.7574 89.446 92.1642 90.93 92.8633 92.3366C94.0211 94.6672 95.893 96.6135 97.7371 98.5212C104.173 105.179 110.607 111.835 117.043 118.493C118.631 114.698 120.776 111.157 123.513 108.015C114.284 99.3826 104.203 91.8082 91.5352 87.9227Z" fill="#E07E58"/>
<path d="M151.698 72.467C151.611 71.9477 151.396 71.432 151.478 70.9114C151.598 70.149 152.34 69.5117 152.24 68.7466C152.137 67.9575 151.188 67.4888 150.992 66.716C150.85 66.1581 151.135 65.5875 151.166 65.0142C151.219 64.0418 150.515 63.1466 149.64 62.6491C148.971 62.2683 148.212 62.0758 147.445 61.9304C145.549 60.6734 143.653 59.4157 141.758 58.1587C141.262 60.3502 141.073 62.595 140.664 64.8062C141.4 65.6058 141.983 66.534 142.349 67.5408C140.81 68.8484 138.795 69.6333 136.74 69.7267C136.985 68.4262 137.766 66.7848 137.406 65.5103C137.088 64.3875 136.357 63.4059 135.516 62.5845C134.811 61.898 133.73 60.835 132.655 60.7858C131.399 60.7289 131.975 62.2304 132.243 62.8213C133.204 64.9432 134.194 67.0905 133.228 69.2103C132.261 71.3301 131.201 73.6523 131.87 75.8747C132.557 78.1562 132.914 79.8333 134.75 81.4873C135.013 96.6767 124.615 111.424 127.726 126.379C128.528 130.236 130.753 134.345 134.624 135.176C138.279 135.961 141.981 133.355 143.683 130.043C145.385 126.732 145.553 122.878 145.687 119.161L146.372 82.8132C148.217 81.5646 150.82 79.3021 151.027 77.1739C151.076 76.6715 151.022 76.1579 150.933 75.6429C151.482 74.6353 151.88 73.5666 151.698 72.467Z" fill="#FCA175"/>
<path d="M143.326 81.1761C144.613 80.8339 145.644 79.8832 146.262 78.7766C146.88 77.67 147.127 76.4151 147.246 75.1728C147.381 73.7662 147.355 72.3138 146.827 70.9901C146.3 69.6663 145.204 68.4824 143.753 68.0791C142.222 69.6797 140.066 70.7491 137.788 71.0393C137.218 71.1116 136.55 71.1889 136.264 71.6541C136.099 71.9218 136.112 72.2506 136.133 72.559C136.27 74.6571 136.505 76.8324 137.663 78.6361C138.82 80.4397 141.159 81.7522 143.326 81.1761Z" fill="#E07E58"/>
<path d="M143.682 130.042C145.384 126.731 145.552 122.877 145.687 119.16L146.252 89.2001C143.989 104.46 145.243 122.621 136.016 135.314C139.187 135.284 142.196 132.932 143.682 130.042Z" fill="#E07E58"/>
<path d="M137.813 55.859C136.986 52.473 136.667 48.962 137.107 45.5135C138.657 45.4523 140.2 45.243 141.705 44.8895C140.321 49.0076 139.707 53.3492 139.897 57.6612C139.405 57.8896 138.782 57.6598 138.43 57.267C138.078 56.8743 137.935 56.3578 137.813 55.859Z" fill="#FCA175"/>
<path d="M139.654 45.2739C138.81 45.3968 137.961 45.4797 137.107 45.5128C136.666 48.9606 136.987 52.4723 137.813 55.8583C137.935 56.3578 138.078 56.8736 138.43 57.267C138.543 57.3928 138.688 57.4912 138.843 57.5741C138.817 53.5185 138.973 49.4721 139.654 45.2739Z" fill="#F5E3CF"/>
<path d="M159.413 26.5597C159.911 15.6215 153.511 6.48434 145.117 6.1513C136.723 5.81825 129.514 14.4155 129.016 25.3537C128.517 36.2919 134.917 45.4291 143.311 45.7621C151.705 46.0952 158.914 37.498 159.413 26.5597Z" fill="#331827"/>
<path d="M155.962 26.5952C155.434 38.1808 147.799 47.2876 138.908 46.9356C130.018 46.5829 123.238 36.9049 123.766 25.3192C124.294 13.7336 131.93 4.62682 140.82 4.97883C149.711 5.33085 156.49 15.0089 155.962 26.5952Z" fill="#F5E3CF"/>
<path d="M154.881 26.551C155.373 15.7647 149.062 6.7545 140.785 6.42609C132.508 6.09769 125.399 14.5755 124.907 25.3617C124.415 36.148 130.726 45.1582 139.003 45.4866C147.28 45.815 154.389 37.3372 154.881 26.551Z" fill="#674138"/>
<path d="M154.893 26.5519C155.31 17.406 149.958 9.76606 142.94 9.48759C135.922 9.20912 129.894 16.3976 129.477 25.5434C129.06 34.6893 134.411 42.3292 141.43 42.6077C148.448 42.8862 154.476 35.6977 154.893 26.5519Z" fill="#FCA175"/>
<path d="M141.236 87.0697C142.681 87.7506 144.517 86.7795 145.216 85.4178C145.915 84.0561 145.785 82.4661 145.615 80.9646C144.585 71.8965 142.612 62.9478 140.642 54.016C139.385 54.479 137.994 54.623 136.658 54.4277C136.749 64.2181 137.65 74.0022 139.349 83.6641C139.58 84.9766 139.965 86.4704 141.236 87.0697Z" fill="#331827"/>
<path d="M150.207 63.4165C147.595 61.6592 145.222 59.5913 143.165 57.279C141.107 58.4981 138.772 59.3075 136.36 59.6384C136.474 61.1139 138.123 62.1538 139.707 62.2346C141.29 62.3161 142.807 61.6915 144.251 61.0795L150.207 63.4165Z" fill="#FCA175"/>
<path d="M144.675 61.6001C142.544 62.6077 140.646 64.0425 139.148 65.7787C138.84 66.1349 138.542 66.5164 138.42 66.9598C138.297 67.4031 138.383 67.9238 138.75 68.2273C139.255 68.644 140.037 68.5056 140.673 68.2969C143.29 67.4383 145.598 65.7829 147.16 63.6448L144.675 61.6001Z" fill="#FCA175"/>
<path d="M145.759 67.4432C143.404 68.3313 141.228 69.6298 139.377 71.2521C139.139 71.4608 138.902 71.6807 138.763 71.9562C138.624 72.2316 138.603 72.5773 138.789 72.8281C139.021 73.1415 139.48 73.2097 139.888 73.2265C142.879 73.3481 145.898 72.0749 147.777 69.901L145.759 67.4432Z" fill="#FCA175"/>
<path d="M147.044 72.9434C145.129 73.0628 143.237 73.4844 141.47 74.1842C141.149 74.3114 140.798 74.4849 140.71 74.7997C140.627 75.0976 140.833 75.4131 141.114 75.5747C141.395 75.7363 141.735 75.7756 142.063 75.803C144.795 76.0279 147.586 75.6105 150.106 74.6002L147.044 72.9434Z" fill="#FCA175"/>
<path d="M116.51 118.12L116.042 117.976C118.364 111.433 122.835 105.478 128.634 101.208L128.939 101.568C123.215 105.784 118.801 111.662 116.51 118.12Z" fill="#331827"/>
<path d="M14.0146 103.343C14.7054 103.982 15.6433 104.32 16.5525 104.642C20.6972 106.108 24.841 107.574 28.9857 109.04C27.4587 104.219 25.9326 99.3994 24.4056 94.5787C23.9439 93.1214 23.4648 91.6298 22.4945 90.4093C21.4934 89.1488 20.0448 88.2719 18.6029 87.4639C14.236 85.0138 9.63263 82.9312 4.86572 81.2484C8.25483 87.1119 10.8025 93.3983 12.4191 99.887C12.7279 101.126 13.0451 102.447 14.0146 103.343Z" fill="#331827"/>
<path d="M82.4069 70.1286C76.333 70.357 70.351 71.9028 64.9084 74.395C63.3053 75.1292 61.7068 75.9745 60.5806 77.2561C59.4537 78.537 58.8812 80.3456 59.5517 81.8738C68.6357 77.0432 78.5334 73.5132 88.7806 71.4496C87.0254 70.1898 84.6299 70.045 82.4069 70.1286Z" fill="#F5E3CF"/>
<path d="M48.4119 115.621C46.2628 112.116 44.2461 108.483 43.2382 104.556C42.2303 100.629 42.3049 96.3423 44.2175 92.7195C46.3306 88.7167 50.4014 85.9539 54.5001 83.6528C67.753 76.2127 82.9976 71.8859 98.4471 71.1791C102.19 76.1136 105.657 81.2597 108.286 86.7844C113.262 97.2381 115.113 108.799 115.246 120.237C115.38 131.674 113.851 143.065 112.325 154.414C98.4787 156.291 84.8235 159.398 71.6061 163.68C71.1157 154.811 67.5714 146.31 63.0818 138.478C58.5936 130.646 53.1382 123.331 48.4119 115.621Z" fill="#FFB204"/>
<path d="M87.9567 72.1016C86.313 72.2745 84.6767 72.5084 83.0504 72.7937C79.3554 67.1235 75.9686 61.9128 71.8292 55.1872C68.318 57.65 62.1357 61.0219 58.0242 62.2922C60.1553 67.9006 61.686 73.7296 62.5982 79.6514C61.7899 80.068 60.9884 80.4945 60.1997 80.9414C59.881 81.122 59.5338 81.3433 59.4645 81.6855C59.4035 81.9848 59.5775 82.2778 59.7545 82.5342C63.5549 88.0583 71.796 90.4402 78.3249 87.9895C84.853 85.5387 89.0181 78.5904 87.9567 72.1016Z" fill="#FCA175"/>
<path d="M87.9567 72.1016C86.313 72.2745 84.6767 72.5084 83.0504 72.7937C79.3554 67.1235 75.9686 61.9128 71.8292 55.1872C68.318 57.65 62.1357 61.0219 58.0242 62.2922C59.3183 65.6979 60.3873 69.1857 61.2347 72.7248C68.5033 77.3116 76.0853 80.9983 83.4768 84.699C86.8749 81.4072 88.6994 76.6448 87.9567 72.1016Z" fill="#E07E58"/>
<path d="M71.5625 55.3699C68.0129 57.8144 62.0363 61.0528 58.0242 62.2922C59.6264 66.5101 60.8882 70.8523 61.8058 75.2649C66.3851 76.8415 70.1757 76.2485 73.2703 74.35C74.7068 68.0854 74.1697 61.2875 71.5625 55.3699Z" fill="#331827"/>
<path d="M66.8293 28.9729C68.5898 27.8733 70.9793 27.7988 72.8995 28.6342C74.8196 29.4696 76.2569 31.1398 76.9025 33.0221C77.5473 34.9045 77.4367 36.9744 76.7813 38.8539C75.6611 34.2306 71.7062 30.3037 66.8293 28.9729Z" fill="#FFB204"/>
<path d="M47.3834 35.9956C44.7943 37.2393 43.8926 41.9413 42.4825 44.3176C41.0715 46.6939 40.7062 49.6878 41.9295 52.1533C42.5254 53.3534 43.4972 54.4207 43.7503 55.7219C44.0056 57.0373 43.937 58.9997 43.9257 59.4557C43.8481 62.6976 45.6328 65.0634 48.0426 67.4003C50.4524 69.7373 53.2893 71.6709 56.3304 73.242C58.0547 74.1329 59.431 75.6358 61.3896 75.4321C63.5282 75.21 65.2427 73.7162 66.6536 72.2007C69.865 68.7522 72.4262 64.717 73.6759 60.301C74.9264 55.8849 74.8097 51.074 72.9204 46.8597C71.0312 42.6453 65.8386 36.198 61.196 34.7457C56.6912 33.3376 51.608 33.9671 47.3834 35.9956Z" fill="#FCA175"/>
<path d="M55.5615 40.8051C58.1047 40.5325 60.8618 40.3119 63.0614 41.474C64.834 42.4106 65.9337 44.1138 66.5356 45.862C67.1375 47.6101 67.3161 49.4468 67.7033 51.242C68.6698 55.7233 72.2796 57.8523 75.6265 61.3219C75.1768 57.742 75.5949 56.3937 76.7896 52.9508C77.9979 49.4707 78.2405 45.8219 78.3045 42.1816C78.3685 38.5328 76.8777 34.9396 73.6054 32.2914C69.8449 29.2476 64.9409 27.3154 59.8455 27.3526C54.7502 27.3892 49.7769 29.0122 45.4823 31.4391C42.0676 33.3685 38.9564 35.9289 37.3775 39.2298C35.794 42.5399 35.6253 46.9293 41.4137 49.5374C42.2378 46.6011 42.506 44.1012 45.6119 42.8371C48.7177 41.5731 52.1679 41.1684 55.5615 40.8051Z" fill="#674138"/>
<path d="M41.3019 35.7757C39.3614 37.039 38.0672 39.1294 37.8638 41.3279C37.6604 43.5271 38.5516 45.7931 40.2315 47.3473C37.8322 43.3353 38.2405 39.3746 41.3019 35.7757Z" fill="#AC6E5F"/>
<path d="M41.1923 37.526C40.7004 38.2279 40.2815 38.9881 40.0872 39.8074C39.8928 40.6267 39.9358 41.5127 40.329 42.2673C40.2198 40.6302 40.5957 38.9678 41.4047 37.5112C41.3339 37.5154 41.2631 37.5204 41.1923 37.526Z" fill="#AC6E5F"/>
<path d="M51.3158 33.5393C50.8608 33.2498 50.3877 33.8625 49.9147 34.1246C49.0612 34.5974 48.0306 33.8554 47.0408 33.7901C46.2905 33.7402 45.5635 34.1021 45.0355 34.6016C44.5074 35.1005 44.1451 35.7286 43.791 36.347C43.0799 37.5864 42.3515 39.0282 42.8893 40.3414C44.5202 38.5954 46.1504 36.85 47.7813 35.104C47.7248 35.7863 48.115 36.5022 48.7772 36.7966C49.4393 37.0903 50.3335 36.8852 50.7109 36.2985C50.7508 36.7995 51.3407 37.1311 51.8793 37.1262C52.4179 37.1213 52.9159 36.8781 53.4055 36.6681C55.2059 35.8931 57.1901 35.4933 59.1728 35.5059C59.5118 34.9438 59.0334 34.1787 58.369 33.9974C57.7053 33.8161 56.9837 34.0824 56.4421 34.4836C56.1068 34.7316 55.6601 35.0478 55.3075 34.8209C55.0943 34.6838 55.0491 34.4091 54.891 34.218C54.1911 33.3741 52.4254 34.8391 51.6939 34.0192C51.5568 33.8653 51.4928 33.6524 51.3158 33.5393Z" fill="#AC6E5F"/>
<path d="M60.9777 35.9521C61.0282 34.6944 60.6689 33.424 59.9585 32.3532C59.8801 33.613 60.2425 34.8932 60.9777 35.9521Z" fill="#AC6E5F"/>
<path d="M61.6162 31.5747C61.9296 33.8927 62.3824 36.1945 62.9707 38.4654C63.159 38.4584 63.3465 38.4513 63.5349 38.445C64.0434 37.2794 64.0863 35.9542 63.7232 34.7422C63.3601 33.5308 62.6023 32.434 61.6162 31.5747Z" fill="#AC6E5F"/>
<path d="M67.5044 53.2761C68.9003 52.1596 67.8878 49.5978 69.3854 48.6029C70.1251 48.1111 71.2031 48.2888 71.9135 48.8172C72.6239 49.3456 73.0329 50.1466 73.3395 50.9441C74.3737 53.6323 74.4205 56.8412 72.6088 59.1445C72.0167 59.8977 71.1723 60.5567 70.1749 60.634C69.1775 60.7106 68.0874 59.9897 68.1258 59.0566L67.5044 53.2761Z" fill="#FCA175"/>
<path d="M70.1122 53.4469C70.2945 53.6801 70.5197 53.8839 70.6802 54.1305C70.8406 54.3771 70.9288 54.6905 70.806 54.9547C70.6696 55.2477 70.2892 55.481 70.3713 55.7908C70.4353 56.0325 70.7374 56.126 70.9785 56.2335C71.8192 56.6094 72.2222 57.6584 71.8304 58.4475C72.3698 57.5748 72.9204 56.6698 73.0364 55.6693C73.1517 54.668 72.7126 53.5382 71.7318 53.1173C71.5917 53.0569 71.435 53.0056 71.3483 52.8869C71.1931 52.6726 71.3506 52.3894 71.4944 52.1688C71.7137 51.8308 71.9088 51.4598 71.9171 51.0649C71.9254 50.6701 71.6986 50.2464 71.2978 50.1178C70.7622 49.945 70.1995 50.3532 69.9291 50.8176C69.4522 51.6313 69.5276 52.6971 70.1122 53.4469Z" fill="#331827"/>
<path d="M42.1143 50.9686L41.7 50.7213C42.2883 49.8641 43.1681 49.1812 44.1768 48.7968L44.3629 49.2226C43.4476 49.5711 42.6492 50.1915 42.1143 50.9686Z" fill="#331827"/>
<path d="M52.1754 45.8121L51.9253 45.4165C54.4715 44.019 57.7159 43.8742 60.3917 45.0385L60.1838 45.4544C57.6504 44.3527 54.583 44.4897 52.1754 45.8121Z" fill="#331827"/>
<path d="M53.5028 63.9413C51.557 63.9413 49.6255 63.6602 47.7543 63.103L47.4959 63.0257L47.603 62.7932C48.2034 61.4912 48.8233 60.145 49.1479 58.7327C49.398 57.6422 49.5668 56.029 48.9476 54.5359C48.3818 53.1707 47.1985 52.1772 45.9314 52.005L46.0022 51.5504C47.4425 51.7451 48.7796 52.8524 49.4071 54.3708C50.0692 55.9693 49.8937 57.6773 49.6286 58.8282C49.3145 60.1991 48.7381 61.4912 48.1634 62.7405C50.0782 63.2815 52.0542 63.5246 54.0415 63.474L54.0557 63.9335C53.8711 63.9392 53.6866 63.9413 53.5028 63.9413Z" fill="#331827"/>
<path d="M51.9275 66.1714C54.1249 65.1252 56.323 64.0797 58.5204 63.0335C59.1132 64.3917 58.5942 66.0969 57.3241 66.9612C56.0548 67.8261 53.1343 67.1115 51.9275 66.1714Z" fill="white"/>
<path d="M46.7631 54.531C46.5469 53.8375 46.0157 53.1426 45.2474 53.0527C44.9046 53.0126 44.5039 53.1384 44.3819 53.4398C44.2937 53.6569 44.3713 53.9 44.4662 54.1143C44.6628 54.5549 44.9355 54.9666 45.27 55.3271C45.5593 55.6383 46.0022 55.9327 46.4097 55.7746C46.6425 55.684 46.7931 55.4592 46.8368 55.2273C46.8813 54.9961 46.8331 54.7572 46.7631 54.531Z" fill="#331827"/>
<path d="M58.0107 50.3243C57.6589 49.5725 56.8551 49.0217 55.9813 48.9338C55.6709 48.9029 55.2943 48.9619 55.1647 49.2268C55.0849 49.3891 55.1256 49.5788 55.1791 49.7503C55.3448 50.2815 55.6219 50.7817 55.9903 51.2153C56.2005 51.4626 56.4476 51.6931 56.7565 51.8237C57.0646 51.9537 57.4442 51.9692 57.7312 51.8013C57.9791 51.6565 58.1282 51.3909 58.1629 51.1204C58.1968 50.8492 58.1274 50.5738 58.0107 50.3243Z" fill="#331827"/>
<path d="M110.848 144.734C112.626 134.925 114.096 124.987 113.469 115.055C112.842 105.124 109.996 95.1162 103.807 87.0135C89.2234 90.3018 74.8993 94.592 60.9888 99.8379C62.573 104.863 63.3497 110.084 63.7497 115.308C64.2845 122.302 64.1542 129.355 65.3331 136.28C66.5113 143.204 69.1471 150.154 74.3893 155.178C84.9657 152.921 95.5414 150.665 106.117 148.408L110.848 144.734Z" fill="#E07E58"/>
<path d="M57.9158 82.1099C60.9734 84.8143 64.0853 87.5545 67.8277 89.3603C71.5701 91.166 76.096 91.9439 80.0297 90.5344C83.2328 89.387 85.7331 86.899 87.3474 84.0751C88.9617 81.2513 89.7745 78.0929 90.3892 74.9445C90.637 73.6762 90.8095 72.2281 89.9417 71.2255C88.9346 70.0619 87.0626 70.0788 85.4641 70.1989C85.9236 73.646 85.4973 77.2723 83.7067 80.3175C81.9168 83.3634 78.6429 85.7425 74.9397 86.1106C71.9445 86.4085 68.9336 85.4031 66.4153 83.8629C63.8962 82.3221 61.7938 80.2697 59.7154 78.2363C59.1158 79.5284 58.5154 80.8191 57.9158 82.1099Z" fill="#F5E3CF"/>
<path d="M76.4414 93.0554C73.8093 93.0554 71.0176 92.4504 68.3735 91.2447C63.7106 89.12 59.8958 85.552 56.5286 82.4035L56.8773 82.0796C60.2167 85.2021 64.0021 88.7413 68.5904 90.8323C73.5607 93.0976 79.0478 93.1875 82.9084 91.0705C85.8237 89.472 88.0889 86.5498 89.2874 82.842C90.3714 79.4862 90.5138 75.8649 90.5658 72.4438L91.0584 72.4494C91.0057 75.9035 90.8618 79.5607 89.759 82.9741C88.5243 86.7929 86.1801 89.8085 83.1586 91.4653C81.2241 92.5263 78.9016 93.0554 76.4414 93.0554Z" fill="#331827"/>
<path d="M53.5915 85.6075C52.1881 85.4185 50.8186 86.0811 49.654 86.835C43.8061 90.6215 40.4765 97.0674 39.0912 103.579C37.7058 110.092 38.0222 116.797 38.0275 123.436C38.0335 132.106 37.4972 140.777 36.4222 149.388C36.1458 151.603 36.011 154.246 37.892 155.621C39.1161 156.515 40.8042 156.541 42.359 156.527C46.1572 156.493 50.448 156.255 52.9271 153.571C54.598 151.762 55.016 149.254 55.3686 146.889C58.1053 128.511 60.8413 109.815 57.7769 91.4815C57.3588 88.9844 56.2725 85.9687 53.5915 85.6075Z" fill="#FCA175"/>
<path d="M56.5304 138.938C58.77 123.138 60.4002 107.177 57.7764 91.4815C57.3591 88.9851 56.2728 85.9687 53.5918 85.6075C52.1884 85.4185 50.8189 86.0811 49.6543 86.835C43.8064 90.6208 40.4768 97.0674 39.0915 103.579C37.7061 110.092 38.0225 116.797 38.0278 123.436C38.0308 127.799 37.8959 132.161 37.6248 136.516C43.9728 134.931 50.6004 136.304 56.5304 138.938Z" fill="#FFB204"/>
<path d="M44.8316 91.1611C41.8907 94.7199 40.0368 99.1331 39.0915 103.579C37.7061 110.092 38.0233 116.797 38.0278 123.436C38.0308 127.799 37.8959 132.161 37.6248 136.516C41.8176 135.469 46.131 135.718 50.2863 136.762C50.1725 132.891 49.7824 129.05 49.2709 125.392C48.1153 114.075 43.3551 102.336 44.8316 91.1611Z" fill="#331827"/>
<path d="M59.121 109.552C56.3925 118.826 52.2109 127.803 46.9619 136.12C50.2471 136.576 53.481 137.583 56.5304 138.938C57.915 129.17 59.063 119.341 59.121 109.552Z" fill="#E07E58"/>
<path d="M56.1484 137.354C51.0779 134.888 45.6586 133.119 40.0427 132.099L40.1361 131.648C45.7994 132.677 51.2632 134.46 56.3766 136.947L56.1484 137.354Z" fill="#331827"/>
<path d="M54.6259 222.834C86.2376 217.631 119.619 225.648 148.007 209.021C147.782 203.357 146.597 197.713 144.514 193.743C140.394 185.894 134.215 179.2 128.53 172.268C126.633 169.954 124.776 167.576 123.064 165.121C121.872 158.75 118.914 152.719 115.729 146.854C115.743 146.854 115.756 146.852 115.77 146.851C115.311 145.121 114.852 143.39 114.392 141.659C99.1605 143.997 82.0446 145.623 65.7198 148.073C65.951 149.461 66.1823 150.849 66.4136 152.238C65.9096 152.988 65.5955 153.867 65.3167 154.718C64.531 157.12 63.8252 159.542 63.1774 161.977C51.584 176.699 40.6062 192.129 36.0803 209.832C35.3888 212.538 34.8969 215.471 35.2683 218.192C40.3199 222.454 47.7957 223.895 54.6259 222.834Z" fill="#176C73"/>
<path d="M59.8222 223.894C91.4255 218.692 119.602 225.644 147.985 209.034C147.892 206.714 147.658 204.397 147.248 202.195C140.317 201.581 133.196 201.763 125.571 203.47C101.125 208.307 78.9018 218.671 54.4564 218.671C44.3937 218.671 39.5018 211.439 38.2483 202.815C37.4212 205.116 36.6875 207.452 36.0796 209.832C35.3881 212.537 34.8962 215.47 35.2676 218.192C40.32 222.454 52.992 224.956 59.8222 223.894Z" fill="#0E5759"/>
<path d="M3.52846 83.5888C2.91904 84.6139 2.31035 85.639 1.70093 86.6642C8.32924 92.3576 10.9168 101.004 12.5101 109.277C18.8303 108.787 25.2824 109.862 31.0308 112.361C37.6117 107.506 45.6321 104.363 53.9568 103.381C51.0197 93.3904 48.0743 83.3611 46.6385 73.0887C45.2871 72.2722 44.9383 71.6722 43.4061 72.1317C41.8731 72.5912 39.1062 74.0576 37.8083 74.9464C31.6131 79.1889 25.7517 84.115 22.0032 90.3727C16.4996 86.8504 10.1304 84.512 3.52846 83.5888Z" fill="#F5E3CF"/>
<path d="M0 87.1189C7.80498 85.8289 16.1071 87.3648 22.7919 91.3368C28.9796 82.1745 38.7559 75.1728 49.8438 71.9639C51.2005 82.5806 53.3791 93.1067 56.3561 103.432C47.208 104.907 38.5232 108.802 31.5755 114.545C25.8022 110.727 18.1207 109.538 11.335 111.415C9.13229 102.778 5.27538 94.5098 0 87.1189Z" fill="#8ED2BD"/>
<path d="M42.9324 95.691C41.4838 96.8088 39.9455 97.8614 38.2016 98.5155C36.457 99.1697 34.4743 99.3994 32.6882 98.8535C38.0126 97.1271 42.8646 94.148 46.668 90.2674C46.6424 91.3768 46.146 92.4434 45.4462 93.3407C44.7456 94.2372 43.8492 94.9834 42.9324 95.691Z" fill="#F5E3CF"/>
<path d="M47.5606 85.5816C46.2882 85.3883 44.9986 85.7439 43.7858 86.1507C37.8294 88.1497 32.2263 91.705 29.2425 96.9128C28.7363 97.7968 28.3642 99.0172 29.1551 99.6952C29.8173 100.263 30.8651 100.058 31.7179 99.7908C36.9013 98.1705 41.7262 95.5575 45.8039 92.1617C47.1914 91.0065 48.5406 89.6877 49.0573 88.0211C49.2449 87.4147 49.2954 86.7051 48.8811 86.2069C48.57 85.8352 48.0593 85.6574 47.5606 85.5816Z" fill="#F5E3CF"/>
<path d="M44.4886 88.1532C43.6698 88.0288 42.8404 88.2579 42.06 88.5192C38.2279 89.805 34.6233 92.0928 32.7039 95.4429C32.3785 96.0114 32.1389 96.7969 32.6474 97.2332C33.073 97.5986 33.7472 97.4665 34.2964 97.2951C37.6313 96.2531 40.7349 94.5717 43.3586 92.3865C44.2513 91.6431 45.1191 90.795 45.4513 89.7228C45.5718 89.3329 45.6042 88.8762 45.3375 88.5558C45.1379 88.3162 44.8095 88.2023 44.4886 88.1532Z" fill="#331827"/>
<path d="M41.8733 89.2493C41.1463 88.6563 40.6695 87.8026 40.5641 86.9074C40.4586 86.0116 40.726 85.0827 41.297 84.3562C42.0518 84.8944 42.4465 85.7931 42.4887 86.6777C42.5317 87.563 42.2567 88.4385 41.8733 89.2493Z" fill="#176C73"/>
<path d="M45.6953 86.0291C45.681 87.0936 45.2471 88.149 44.4938 88.9492C43.7405 89.7495 42.6746 90.2878 41.5447 90.4381C41.2072 89.3814 41.6908 88.2009 42.5375 87.4316C43.385 86.6622 44.5382 86.2519 45.6953 86.0291Z" fill="#176C73"/>
<path d="M43.8915 89.0272C43.7492 88.6155 43.343 88.34 42.9611 88.0934C42.2613 87.6423 41.5336 87.18 40.6967 87.0331C39.847 86.8842 38.9755 87.0774 38.1355 87.2692C37.0357 87.5208 35.9359 87.7716 34.8361 88.0231C33.9894 89.1677 33.2857 90.4037 32.7426 91.6986C32.6093 92.0155 32.4842 92.352 32.5354 92.6893C32.5866 93.0266 32.8729 93.3568 33.2375 93.3582C33.6963 94.1796 32.4202 95.2729 33.0153 96.0141C33.4229 96.5221 34.2756 96.3008 34.8918 96.0324C38.0331 94.6644 41.3054 93.1994 43.3755 90.606C43.7423 90.1472 44.0799 89.5717 43.8915 89.0272Z" fill="#E07E58"/>
<path d="M40.7961 91.1808C39.5464 91.2419 38.2906 91.204 37.0476 91.0691C37.3587 91.5581 37.5885 92.0921 37.7256 92.6465C38.7486 92.1582 39.7724 91.6691 40.7961 91.1808Z" fill="#FFB204"/>
<path d="M39.0627 88.9162C39.4009 88.416 39.8159 87.9614 40.2913 87.5707C39.6517 87.4049 38.9752 87.3648 38.3184 87.4555C38.5669 87.9424 38.8148 88.4293 39.0627 88.9162Z" fill="#FFB204"/>
<path d="M35.2854 88.5684C35.4142 88.9443 35.6771 89.2795 36.0229 89.5064C36.0138 89.1151 36.0824 88.7223 36.2233 88.3541C35.9114 88.4251 35.598 88.4968 35.2854 88.5684Z" fill="#FFB204"/>
<path d="M39.7421 89.8915C39.5553 90.1093 39.3685 90.3271 39.1816 90.5449C39.4897 90.5681 39.8031 90.5393 40.0999 90.4599C39.9809 90.2702 39.8611 90.0805 39.7421 89.8915Z" fill="#FFB204"/>
<path d="M22.7919 91.3368C16.1064 87.3648 7.80422 85.8282 0 87.1189C5.27538 94.5098 9.13228 102.778 11.3357 111.416C18.0461 109.56 25.6289 110.705 31.3803 114.424C29.0602 106.639 25.9038 98.9504 22.8386 91.2721C22.8236 91.2939 22.807 91.315 22.7919 91.3368Z" fill="#176C73"/>
<path d="M30.5013 107.861C28.7122 108.942 26.3777 108.549 24.279 108.202C22.1803 107.855 19.7479 107.679 18.187 109.032C22.1049 108.524 25.6131 111.364 29.528 111.89C33.0671 112.366 36.5616 110.91 39.6667 109.257C42.7719 107.603 45.8295 105.677 49.3452 105.07C50.2431 104.915 51.1824 104.843 51.9847 104.436C52.787 104.029 53.4167 103.157 53.1493 102.343C52.3568 102.618 51.5433 102.897 50.6973 102.897C49.8521 102.896 48.9535 102.558 48.5489 101.866C48.1459 101.176 48.3131 100.333 48.2762 99.5484C48.2393 98.7629 47.7896 97.8361 46.9482 97.8003C45.9734 97.7581 45.5055 98.8584 44.8788 99.5555C43.8588 100.691 42.0727 100.867 40.4848 100.822C38.8968 100.777 37.2042 100.616 35.8143 101.334C33.2154 102.677 32.997 106.354 30.5013 107.861Z" fill="#331827"/>
<path d="M53.1539 138.727C51.2164 134.527 48.5527 130.643 46.6431 126.432C45.4032 123.698 44.4954 120.74 44.3689 117.796C46.7252 116.155 48.5693 113.881 49.4447 111.259C50.0262 111.162 50.6092 111.076 51.196 111.015C51.8831 108.772 52.8511 106.603 54.0752 104.568C54.4662 103.918 54.876 103.077 54.3901 102.485C54.0557 102.079 53.401 102 52.8857 102.179C52.3705 102.358 51.969 102.739 51.6127 103.13C50.372 104.494 49.4906 106.088 48.723 107.736C48.5542 107.598 48.3712 107.473 48.1799 107.355C49.294 104.144 49.5426 100.734 48.3576 97.5269C48.0096 97.3696 46.9098 97.3091 46.6688 97.5909C46.4285 97.8733 46.3365 98.238 46.2514 98.59C45.6555 101.054 45.0589 103.518 44.463 105.983C44.2785 105.95 44.0992 105.928 43.9207 105.908C44.1911 104.361 44.2612 102.807 43.9282 101.273C43.8175 100.764 43.6541 100.246 43.2947 99.8491C42.9354 99.4522 42.338 99.2041 41.8077 99.365C41.0853 99.5842 40.8171 100.389 40.6559 101.082C40.2114 102.991 39.7843 104.904 39.3685 106.819C38.7538 107.125 38.1278 107.494 37.4694 107.916C37.779 106.409 37.8807 104.865 37.7579 103.336C37.7097 102.735 37.6193 102.113 37.269 101.607C36.9188 101.101 36.24 100.746 35.6208 100.919C34.9127 101.116 34.5865 101.864 34.3967 102.53C33.7052 104.959 33.5763 107.522 34.0057 110.002C32.1164 110.537 29.0068 110.408 27.5198 110.089C26.3348 109.833 24.1495 109.12 23.1009 108.546C21.1476 107.478 18.3988 107.92 16.9426 109.538C18.9442 110.007 20.9675 110.484 22.7928 111.383C24.618 112.281 26.2535 113.657 26.9947 115.454C29.223 116.041 31.3043 117.085 33.0844 118.467C34.9051 129.721 29.1371 142.145 34.1051 152.674C36.0125 156.716 39.9689 160.325 44.7034 160.374C49.6051 160.423 53.8183 156.501 55.0522 152.076C56.2861 147.65 55.0906 142.927 53.1539 138.727Z" fill="#FCA175"/>
<path d="M37.4008 146.813C34.4991 140.302 33.8822 132.941 33.3963 125.73C32.9383 134.886 30.1729 144.365 34.0833 152.671C35.9869 156.715 39.9394 160.327 44.674 160.379C47.9923 160.416 50.9934 158.629 52.9723 156.1C46.5188 155.523 40.3153 152.262 37.4008 146.813Z" fill="#E07E58"/>
<path d="M71.3958 99.1922C66.5362 93.2409 60.9331 87.8897 57.0491 81.3447C55.7738 82.034 55.706 81.793 54.4307 82.4823C58.326 89.2472 62.2221 96.0114 66.1174 102.776C67.6534 101.326 69.444 100.11 71.3958 99.1922Z" fill="#674138"/>
<path d="M114.146 149.38C114.215 149.374 114.283 149.367 114.351 149.361C111.647 141.984 110.812 134.172 111.938 126.777C112.807 121.064 114.821 115.336 113.243 109.537C111.178 101.944 107.34 95.3193 102.36 88.7687C88.7804 92.2966 74.0488 96.3191 61.4234 102.36C63.0423 106.458 64.3674 109.914 65.6857 113.241C67.0092 116.578 66.9768 120.112 67.0913 123.566C67.4393 134.014 69.3339 144.647 73.7731 154.618C73.8891 154.598 74.0051 154.58 74.1211 154.56C67.2126 164.906 60.3115 175.32 55.2358 186.549C50.4335 197.172 47.3457 208.642 47.7126 220.138C77.3249 229.315 104.28 213.494 133.347 210.491C132.932 201.717 130.489 192.638 127.642 184.918C123.257 173.025 117.263 161.595 114.146 149.38Z" fill="#674138"/>
<path d="M111.663 129.018C111.737 128.268 111.825 127.52 111.938 126.777C112.807 121.064 114.82 115.335 113.243 109.536C113.143 109.169 113.019 108.813 112.912 108.451C106.017 110.215 98.3194 109.612 91.4952 112.265C82.8239 116.814 75.3399 122.471 67.3066 127.616C67.5884 131.482 68.1006 135.359 68.8878 139.203C81.025 131.68 96.6018 128.459 111.663 129.018Z" fill="#331827"/>
<path d="M70.7808 146.544C71.0663 147.481 71.3676 148.414 71.6915 149.343C79.1703 146.428 86.8133 144.073 94.4579 141.975C86.6582 143.095 78.3726 143.762 70.7808 146.544Z" fill="#331827"/>
<path d="M111.591 136.432C111.464 134.592 111.435 132.755 111.533 130.933C96.8394 131.37 82.6833 135.874 69.6157 142.397C69.7747 143.04 69.957 143.678 70.1318 144.319C83.2845 139.816 97.6266 136.631 111.591 136.432Z" fill="#331827"/>
<path d="M85.5683 153.721C85.2941 153.821 85.0169 153.914 84.7427 154.013C85.435 154.107 86.1219 153.721 85.5683 153.721Z" fill="#674138"/>
<path d="M114.147 149.38C114.215 149.374 114.283 149.367 114.351 149.361C114.064 148.575 113.801 147.783 113.555 146.988C103.337 147.435 92.6202 148.946 84.0868 153.722C84.2744 153.897 84.5086 153.982 84.7421 154.014C85.0171 153.916 85.2943 153.822 85.5677 153.722C86.1214 153.722 85.4337 154.107 84.7421 154.014C80.4302 155.562 76.0316 156.947 71.6255 158.306C71.099 159.1 70.5755 159.896 70.0527 160.693C85.2017 157.918 100.48 155.839 115.826 155.109C115.209 153.214 114.638 151.308 114.147 149.38Z" fill="#331827"/>
<path d="M47.6538 217.396C47.6394 218.305 47.6439 219.214 47.6703 220.124C77.3007 229.329 104.269 213.494 133.353 210.491C133.197 207.219 132.76 203.905 132.123 200.635C106.5 211.67 74.4495 228.29 47.6538 217.396Z" fill="#331827"/>
<path d="M102.614 91.3038C98.2564 84.7939 96.7558 78.2299 93.1618 71.3259C92.23 71.5711 91.7788 71.4264 90.8469 71.6716C94.5102 78.6023 94.7294 85.9813 97.4104 93.2922C98.9991 92.3465 100.771 91.6691 102.614 91.3038Z" fill="#674138"/>
<path d="M77.4243 153.521L77.2458 153.093C88.7111 148.952 100.735 146.349 112.983 145.358L113.025 145.816C100.824 146.803 88.8459 149.396 77.4243 153.521Z" fill="#331827"/>
<path d="M111.626 145.362C109.245 139.983 109.788 133.851 110.635 128.56C110.787 127.614 110.95 126.668 111.113 125.719C111.901 121.157 112.715 116.44 112.14 111.818C111.151 103.872 106.18 96.818 101.76 90.5885C88.4255 93.9758 75.1953 98.2049 62.4335 103.159L62.2437 102.735C75.0799 97.7525 88.3893 93.5015 101.803 90.1022L101.974 90.0594L102.072 90.1978C106.547 96.5046 111.619 103.652 112.628 111.767C113.212 116.451 112.393 121.201 111.6 125.794C111.437 126.74 111.274 127.685 111.122 128.629C110.286 133.858 109.745 139.913 112.082 145.187L111.626 145.362Z" fill="#331827"/>
<path d="M74.7571 153.765C71.2866 145.393 69.1088 136.613 68.2839 127.668C68.1581 126.3 68.0616 124.906 67.969 123.559C67.7731 120.703 67.5697 117.751 67.0665 114.886C66.2025 109.963 64.5769 106.129 62.094 103.164L62.4827 102.882C65.0168 105.908 66.6756 109.811 67.5532 114.812C68.0595 117.698 68.2636 120.662 68.4609 123.528C68.5536 124.874 68.6493 126.265 68.7751 127.628C69.5954 136.529 71.7627 145.267 75.2158 153.599L74.7571 153.765Z" fill="#331827"/>
<path d="M75.3669 155.206L74.9729 154.93C59.7683 173.81 51.3893 197.514 51.3154 221.146C51.4804 221.187 51.6446 221.219 51.8096 221.258C51.8571 197.687 60.2021 174.038 75.3669 155.206Z" fill="#331827"/>
<path d="M121.757 176.634C117.675 166.595 113.453 156.215 112.158 145.436L111.668 145.487C112.971 156.324 117.204 166.732 121.297 176.797C122.395 179.498 123.531 182.291 124.591 185.046C127.468 192.522 130.409 201.5 131.093 210.758C131.255 210.738 131.419 210.719 131.582 210.699C130.891 201.398 127.94 192.391 125.053 184.89C123.994 182.132 122.856 179.337 121.757 176.634Z" fill="#331827"/>
<path d="M33.3066 101.308L33.1747 101.031C32.0335 98.635 30.603 95.4591 29.6621 92.1343L29.6267 92.0092L29.7231 91.9158C34.5804 87.2173 40.2159 83.4217 46.4713 80.6336L46.7485 80.51L49.5598 91.8666L49.3745 91.9439C43.7052 94.3019 38.3839 97.3871 33.5575 101.115L33.3066 101.308ZM30.1736 92.1413C31.07 95.2638 32.3973 98.2528 33.4934 100.567C38.2347 96.9388 43.4453 93.9239 48.9889 91.6003L46.4073 81.1712C40.356 83.9051 34.896 87.5946 30.1736 92.1413Z" fill="#331827"/>
<path d="M240.142 286.802C235.352 286.802 230.441 286.822 225.955 288.386C221.467 289.95 217.421 293.411 216.752 297.835C215.83 303.932 221.152 311.007 214.949 315.439C213.54 316.445 211.815 317.001 210.05 317.18C188.958 319.326 167.589 319.078 146.558 316.462C142.954 316.013 142.334 311.38 145.705 310.106L164.305 303.08C169.211 301.227 168.491 294.522 163.283 293.642C144.729 290.509 125.881 288.86 107.047 287.428C104.113 287.205 103.757 283.303 106.613 282.644C113.52 281.051 121.472 281.86 128.781 282.289C154.959 283.828 180.921 278.225 206.773 274.086C232.624 269.947 259.661 267.318 284.708 274.584C285.289 274.752 285.872 274.929 286.454 275.115C293.309 277.301 291.54 286.801 284.296 286.801C269.579 286.802 254.861 286.802 240.142 286.802Z" fill="#AC6E5F"/>
<path d="M151.919 264.45C147.027 270.487 142.135 276.525 137.243 282.562C132.443 279.607 127.643 276.652 122.842 273.698C129.469 267.578 133.61 259.556 137.622 251.704C142.133 256.192 146.908 260.45 151.919 264.45Z" fill="#FCA175"/>
<path d="M142.92 279.571C140.663 283.202 138.406 286.834 136.149 290.465C133.062 290.041 127.869 289.72 124.783 289.295C124.721 288.291 124.659 287.286 124.597 286.282C122.115 286.241 120.009 287.984 117.651 288.744C115.499 289.436 113.175 289.294 110.917 289.144C103.394 288.645 100.737 287.797 93.2149 287.299C92.4397 282.044 93.0138 279.633 98.189 278.115C103.975 276.418 109.253 275.22 114.633 273.523C119.775 271.902 126.558 269.199 129.148 264.54C134.856 269.103 138.893 271.595 144.6 276.159L142.92 279.571Z" fill="#674138"/>
<path d="M104.484 284.832C116.231 286.398 127.978 282.439 139.071 285.763C138.097 287.331 137.123 288.898 136.149 290.465C133.062 290.041 127.869 289.72 124.783 289.295C124.721 288.291 124.658 287.286 124.597 286.282C122.115 286.241 120.009 287.984 117.65 288.743C115.499 289.435 113.175 289.293 110.917 289.144C103.394 288.645 100.736 287.797 93.2148 287.298C92.8863 285.073 92.8058 283.361 93.2088 282.008C96.967 283.209 100.725 284.194 104.484 284.832Z" fill="#331827"/>
<path d="M141.185 273.273C139.944 275.446 138.503 277.521 136.884 279.467C136.57 279.102 136.147 278.82 135.676 278.66C136.915 276.257 138.155 273.854 139.394 271.451C139.858 272.159 140.47 272.781 141.185 273.273Z" fill="#C7B1A4"/>
<path d="M139.097 285.207L139.226 284.781C132.536 283.012 125.423 283.365 118.541 283.707C117.753 283.746 116.968 283.785 116.183 283.82C108.993 284.149 100.725 284.229 93.6522 281.011L93.4443 281.41C100.617 284.673 108.956 284.595 116.207 284.263C116.992 284.227 117.779 284.188 118.566 284.149C125.409 283.811 132.482 283.46 139.097 285.207Z" fill="#331827"/>
<path d="M118.214 272.487C121.013 275.238 122.759 278.929 123.001 282.715L122.526 282.741C122.288 278.996 120.54 275.341 117.736 272.652C117.896 272.598 118.056 272.543 118.214 272.487Z" fill="#331827"/>
<path d="M123.154 270.138C126.895 273.504 129.071 278.207 129.123 283.056L128.647 283.061C128.596 278.314 126.461 273.708 122.788 270.422L122.946 270.267C123.017 270.225 123.084 270.182 123.154 270.138Z" fill="#331827"/>
<path d="M96.278 278.971C99.9406 280.106 103.742 280.663 107.603 280.619C107.001 279.059 106.095 277.601 104.944 276.344C105.108 276.302 105.271 276.255 105.434 276.21C106.593 277.513 107.505 279.012 108.103 280.616C108.16 280.614 108.217 280.616 108.274 280.614L108.289 281.058C108.277 281.058 108.265 281.058 108.253 281.058C108.529 281.886 108.735 282.733 108.842 283.591L108.371 283.643C108.262 282.769 108.048 281.906 107.757 281.065C107.575 281.068 107.392 281.073 107.209 281.073C103.32 281.073 99.4901 280.473 95.8042 279.295C95.9586 279.182 96.1183 279.076 96.278 278.971Z" fill="#331827"/>
<path d="M111.993 274.529C114.656 276.867 116.452 279.992 117.052 283.358L116.583 283.431C115.991 280.099 114.195 277.007 111.53 274.723L111.692 274.557C111.792 274.544 111.892 274.535 111.993 274.529Z" fill="#331827"/>
<path d="M177.902 285.573C178.325 291.28 174.551 296.82 169.232 300.112C163.913 303.405 160.475 304.306 151.58 306.235C149.104 306.772 145.4 306.779 143.17 307.869C140.754 309.05 139.47 309.451 139.033 311.85C138.596 314.249 139.31 315.524 139.702 317.929C149.833 317.591 155.97 318.426 164.23 318.088C168.195 317.926 171.917 316.627 175.272 314.761C176.206 314.242 177.38 313.982 178.464 314.13C180.943 314.469 179.64 315.515 181.392 317.093C184.23 317.621 196.731 317.748 198.558 316.753C200.334 308.273 198.301 299.223 192.991 291.974L177.902 285.573Z" fill="#674138"/>
<path d="M190.308 295.575C190.101 298.258 189.893 300.941 189.686 303.625C188.894 303.294 187.988 303.202 187.138 303.366C187.731 300.37 188.033 297.323 188.036 294.275C189.276 294.563 189.07 295.287 190.308 295.575Z" fill="#C7B1A4"/>
<path d="M160.545 314.078C173.728 310.799 186.099 313.577 199.16 311.91C199.092 313.535 198.894 315.154 198.559 316.753C196.732 317.748 184.231 317.622 181.392 317.093C179.641 315.515 180.943 314.469 178.465 314.13C177.381 313.982 176.207 314.242 175.273 314.761C171.918 316.627 168.195 317.926 164.231 318.088C155.971 318.426 149.834 317.591 139.703 317.929C139.442 316.328 139.045 315.224 138.932 313.96C145.967 315.609 153.256 315.892 160.545 314.078Z" fill="#331827"/>
<path d="M148.608 314.509C150.617 314.509 152.765 314.345 155.069 314.019C157.652 313.653 160.245 313.126 162.753 312.613C165.388 312.077 168.113 311.522 170.823 311.156C180.167 309.897 189.706 310.805 198.931 311.682L198.98 311.241C189.725 310.361 180.157 309.449 170.754 310.718C168.028 311.085 165.294 311.642 162.651 312.181C160.151 312.691 157.566 313.218 154.998 313.582C148.666 314.478 143.537 314.134 139.304 312.532L139.127 312.942C141.891 313.988 145.026 314.509 148.608 314.509Z" fill="#331827"/>
<path d="M168.642 311.001L169.114 310.949C168.713 307.744 167.974 304.565 166.917 301.502L166.464 301.637C167.512 304.674 168.245 307.824 168.642 311.001Z" fill="#331827"/>
<path d="M160.85 312.554L161.319 312.483C160.836 309.702 159.962 306.99 158.717 304.421L158.285 304.603C159.511 307.136 160.375 309.812 160.85 312.554Z" fill="#331827"/>
<path d="M154.955 313.688L155.419 313.589C154.765 310.924 153.78 308.328 152.492 305.872L152.065 306.068C153.338 308.492 154.31 311.056 154.955 313.688Z" fill="#331827"/>
<path d="M176.366 310.442L176.83 310.345C175.836 306.241 173.778 302.366 170.88 299.14L170.516 299.424C173.366 302.597 175.388 306.407 176.366 310.442Z" fill="#331827"/>
<path d="M149.597 311.446C151.243 311.446 152.891 311.311 154.521 311.039L154.438 310.603C149.671 311.397 144.743 311.003 140.188 309.46L140.027 309.877C143.103 310.919 146.346 311.446 149.597 311.446Z" fill="#331827"/>
<path d="M126.552 256.582C146.452 236.751 160.172 214.567 178.01 192.977C184.53 190.649 191.468 189.405 198.345 189.645C217.229 201.153 225.457 207.438 244.342 218.947L246.753 217.323C256.784 219.117 266.815 220.911 276.846 222.704C273.075 228.5 271.621 235.2 270.102 241.742C268.583 248.284 266.867 254.973 262.68 260.544C258.494 266.116 251.266 270.407 243.706 269.766C235.726 269.09 229.653 263.407 224.378 258.1C212.64 246.292 200.902 234.483 189.164 222.674C178.13 241.767 164.951 259.899 149.894 276.734C141.695 270.275 133.355 264.009 126.552 256.582Z" fill="#AC6E5F"/>
<path d="M140.11 262.805C158.187 247.131 173.088 227.747 183.203 206.748L182.769 206.566C172.681 227.512 157.818 246.847 139.787 262.481L140.11 262.805Z" fill="#331827"/>
<path d="M185.668 205.791C207.522 212.473 221.775 235.861 241.729 236.697C247.705 236.697 250.435 227.317 255.102 218.816C262.35 220.112 269.598 221.408 276.846 222.704C273.075 228.5 271.621 235.2 270.102 241.742C268.583 248.284 266.867 254.973 262.681 260.544C258.494 266.116 251.266 270.407 243.706 269.766C235.726 269.09 229.654 263.407 224.378 258.1C212.64 246.292 200.902 234.483 189.164 222.674C178.13 241.767 164.951 259.899 149.894 276.734C145.881 273.574 141.837 270.458 137.954 267.231C158.353 250.481 173.059 227.404 185.668 205.791Z" fill="#331827"/>
<path d="M150.617 278.286C142.065 270.832 132.688 264.108 122.662 258.243C124.033 256.092 125.406 253.941 126.778 251.79C136.245 259.117 145.713 266.444 155.181 273.771C153.659 275.277 152.138 276.782 150.617 278.286Z" fill="#C7B1A4"/>
<path d="M176.801 202.783C182.271 199.185 188.047 195.981 194.036 193.214C217.822 204.306 249.675 228.181 249.675 228.181L255.343 221.47L297.653 228.108C296.345 239.557 294.066 249.97 290.552 263.323C284.966 269.875 277.373 275.035 268.897 278.907C267.878 279.345 254.271 279.468 253.208 279.847C232.474 265.983 226.529 255.025 206.7 233.866C206.4 251.822 199.874 279.046 198.543 298.534C187.27 296.182 175.996 293.454 164.722 290.845C167.055 261.364 170.59 232.484 176.801 202.783Z" fill="#FFB204"/>
<path d="M271.185 276.791C271.525 276.97 271.871 277.136 272.221 277.294C271.13 277.853 270.023 278.393 268.898 278.908C267.878 279.346 254.271 279.469 253.209 279.848C232.474 265.983 226.529 255.026 206.7 233.867C206.4 251.823 199.874 279.047 198.544 298.535C197.302 298.276 196.06 297.997 194.819 297.73C198.265 269.933 199.793 241.774 203.721 214.144C226.526 235.026 241.729 260.92 271.185 276.791Z" fill="#E07E58"/>
<path d="M229.487 226.336C236.6 227.361 242.87 232.401 245.009 238.811C239.354 235.215 234.136 231.021 229.487 226.336Z" fill="#E07E58"/>
<path d="M263.961 232.323C273.984 236.847 284.124 241.41 295.072 243.751C294.643 245.485 294.214 247.22 293.785 248.954C282.371 245.932 271.935 240.112 263.961 232.323Z" fill="#331827"/>
<path d="M192.391 298.226L192.86 298.297C197.121 273.755 199.028 248.723 198.528 223.897C198.492 222.135 198.651 220.384 200.044 219.524C200.38 219.318 200.786 219.169 201.18 219.027C201.82 218.794 202.482 218.553 202.922 218.042C203.291 217.616 203.416 217.102 203.535 216.604C203.622 216.246 203.703 215.906 203.871 215.604C204.446 214.559 205.987 214.162 207.214 214.316C208.604 214.484 209.888 215.206 210.92 215.786C216.227 218.772 221.398 221.976 226.425 225.357C225.27 227.495 224.218 229.676 223.283 231.888C222.599 233.504 221.948 235.229 222.141 237.004C222.393 239.326 224.061 241.32 225.604 243.005C230.474 248.321 236.056 253.131 242.194 257.302L242.342 257.402L242.483 257.295C246.627 254.157 250.055 250.226 252.534 245.886C258.366 251.241 263.904 256.925 268.993 262.788C270.991 265.09 272.876 266.249 274.613 266.249C275.044 266.249 275.466 266.178 275.878 266.035C277.502 265.473 278.343 263.904 278.956 262.757C279.609 261.537 280.425 260.202 281.857 259.793C282.221 259.69 282.607 259.71 282.968 259.803C282.994 259.856 283.017 259.909 283.043 259.963L283.23 259.884C283.621 260.03 283.965 260.261 284.187 260.523C284.372 260.742 284.639 261.181 284.336 261.662L284.732 261.907C290.429 254.786 290.872 245.312 291.228 237.698L290.753 237.679C290.412 244.972 289.991 253.986 284.913 260.909C284.857 260.684 284.739 260.46 284.559 260.248C284.276 259.913 283.83 259.613 283.316 259.438C280.242 253.035 277.393 246.459 274.853 239.883L274.406 240.033C274.485 240.239 274.571 240.446 274.652 240.652L274.595 240.661C275.838 246.717 278.165 252.527 281.509 257.931L281.921 257.709C279.108 253.165 277.029 248.328 275.707 243.302C277.871 248.689 280.223 254.055 282.736 259.308C282.402 259.266 282.056 259.274 281.718 259.37C280.107 259.83 279.228 261.258 278.531 262.56C277.782 263.959 277.053 265.156 275.713 265.62C273.849 266.266 271.713 265.218 269.363 262.51C264.232 256.598 258.647 250.868 252.763 245.472C254.487 242.361 255.731 239.051 256.389 235.672L255.921 235.593C254.341 243.703 249.391 251.439 242.326 256.843C236.275 252.716 230.772 247.964 225.966 242.717C224.468 241.082 222.851 239.154 222.614 236.959C222.432 235.283 223.063 233.615 223.724 232.05C224.645 229.872 225.679 227.724 226.814 225.618C233.09 229.859 239.134 234.383 244.875 239.177L245.192 238.846C245.043 238.721 244.89 238.601 244.74 238.478L244.887 238.427C242.276 231.883 235.3 226.699 227.53 225.53L227.526 225.551C227.363 225.44 227.198 225.331 227.035 225.221C228.139 223.203 229.332 221.221 230.621 219.296C239.024 222.702 246.528 227.848 252.329 234.184L252.691 233.896C246.798 227.462 239.167 222.246 230.621 218.814L230.434 218.739L230.326 218.9C229.002 220.867 227.777 222.893 226.645 224.959C221.625 221.584 216.461 218.387 211.163 215.406C210.094 214.805 208.762 214.057 207.273 213.875C205.923 213.716 204.154 214.118 203.445 215.4C203.25 215.753 203.158 216.135 203.069 216.506C202.956 216.974 202.85 217.416 202.55 217.763C202.189 218.182 201.613 218.391 201.004 218.613C200.588 218.765 200.157 218.921 199.78 219.154C198.195 220.132 198.011 222.016 198.05 223.905C198.554 248.705 196.649 273.71 192.391 298.226ZM244.2 238.036C239.143 233.865 233.871 229.89 228.406 226.142C235.408 227.508 241.601 232.163 244.2 238.036Z" fill="#331827"/>
<path d="M199.653 300.619C188.028 297.153 176.1 294.474 164.009 292.612C163.886 290.005 163.763 287.398 163.641 284.791C176.516 287.308 189.034 291.235 200.812 296.453C200.427 297.842 200.04 299.23 199.653 300.619Z" fill="#C7B1A4"/>
<path d="M170.162 180.859C169.98 180.321 169.77 179.715 169.514 178.995C194.132 174.776 218.13 163.905 239.404 150.98C242.252 157.544 246.106 163.544 250.761 169.045C226.554 178.425 198.981 183.692 173.457 188.796C171.766 191.118 169.304 192.957 166.461 193.885C164.128 189.396 162.128 184.758 160.482 180.012C163.723 180.129 166.953 180.424 170.162 180.859Z" fill="#FCA175"/>
<path d="M166.335 191.982C165.992 192.331 165.617 192.698 165.121 192.798C164.576 192.909 164.004 192.657 163.622 192.278C163.239 191.9 163.012 191.411 162.806 190.928C161.539 187.96 160.785 184.802 160.581 181.613C160.55 181.117 160.549 180.568 160.893 180.189C161.376 179.656 162.267 179.725 162.997 179.876C165.146 180.324 167.217 181.094 169.107 182.148C170.429 182.885 171.794 183.999 171.732 185.435C171.687 186.484 170.883 187.352 170.123 188.126C168.86 189.411 167.598 190.696 166.335 191.982Z" fill="#E07E58"/>
<path d="M145.317 156.481C145.387 157.408 145.777 158.291 146.252 159.109C146.408 159.377 146.578 159.645 146.817 159.853C147.827 160.733 150.762 160.836 150.762 160.836L151.833 158.148C151.833 158.148 150.233 155.286 149.618 154.273L150.252 153.461L152.003 154.251C152.652 155.709 153.601 157.05 154.781 158.181C153.286 161.534 151.791 164.888 150.296 168.241C147.553 167.937 145.058 166.145 144.043 163.748C143.029 161.351 143.537 158.452 145.317 156.481Z" fill="#E07E58"/>
<path d="M151.71 165.832C149.35 165.109 146.394 165.863 144.574 164.288C144.202 165.719 145.295 167.155 146.608 167.974C147.921 168.792 149.476 169.217 150.8 170.019C152.963 171.328 154.315 173.513 155.438 175.678C160.095 184.656 162.226 194.691 167.507 203.364C168.639 205.222 170.067 207.125 172.237 207.809C173.174 208.104 174.369 208.075 174.964 207.339C175.478 206.703 175.342 205.813 175.159 205.036C173.223 196.855 168.668 189.453 164.175 182.199C161.767 178.31 159.359 174.421 156.842 170.593C155.552 168.632 154.053 166.55 151.71 165.832Z" fill="#E07E58"/>
<path d="M151.568 160.991C152.03 159.942 152.438 158.873 152.788 157.786C151.9 156.28 150.91 154.611 150.212 153.406C153.3 153.349 156.949 156.239 157.92 158.815C158.633 160.706 158.198 162.862 156.926 164.5C156.827 166.023 157.178 167.578 157.767 169.012C158.551 170.922 159.737 172.661 160.881 174.406C162.387 176.701 163.826 179.033 165.212 181.393C169.935 188.185 174.424 195.033 176.427 202.741C176.848 204.358 176.989 206.38 175.45 207.341C174.283 208.071 172.589 207.788 171.459 207.013C170.33 206.238 169.643 205.079 169.019 203.946C166.754 199.835 164.873 195.571 162.995 191.312C160.404 185.438 157.813 179.562 155.222 173.688C154.922 173.213 154.613 172.744 154.284 172.287C153.307 170.929 152.168 169.656 150.851 168.584C149.782 168.672 148.685 168.511 147.72 168.098C146.154 167.427 144.967 166.111 144.581 164.619C146.91 163.41 149.239 162.2 151.568 160.991Z" fill="#331827"/>
<path d="M154.861 160.707C155.287 161.035 155.724 161.374 155.986 161.827C156.249 162.281 156.298 162.881 155.959 163.287C155.759 163.526 155.458 163.668 155.166 163.801C153.287 164.661 151.409 165.522 149.53 166.382C149.317 165.506 148.821 164.693 148.124 164.074C150.209 163.258 152.213 162.259 154.097 161.095L154.861 160.707Z" fill="#E07E58"/>
<path d="M150.648 160.828L148.074 160.09L145.382 156.139C145.382 156.139 143.046 159.684 144.868 163.746L150.648 160.828Z" fill="#331827"/>
<path d="M150.377 154.106C150.364 154.02 150.35 153.934 150.337 153.848L150.377 154.106Z" fill="#331827"/>
<path d="M175.749 183.797C197.706 175.02 222.249 170.463 244.577 160.671C246.436 163.585 248.502 166.375 250.762 169.045C226.555 178.425 198.982 183.692 173.458 188.796C172.605 189.968 171.555 191.015 170.36 191.886C171.683 188.525 172.866 185.142 175.749 183.797Z" fill="#E07E58"/>
<path d="M177.576 179.026C174.733 179.269 171.808 178.584 169.426 177.114C168.519 176.554 167.657 175.87 166.602 175.621C164.153 175.043 161.659 176.987 159.181 176.529C158.452 178.499 157.024 180.238 155.175 181.407C156.224 182.434 158.166 182.5 159.292 181.548C159.632 181.261 159.951 180.876 160.408 180.847C160.986 180.811 161.386 181.351 161.713 181.797C163.218 183.848 165.794 185.181 168.457 185.284C171.12 185.387 173.805 184.258 175.487 182.33L177.576 179.026Z" fill="#FCA175"/>
<path d="M158.541 182.573C160.384 182.215 162.341 182.394 164.074 183.076C164.573 183.273 165.116 183.591 165.166 184.094C165.197 184.409 165.011 184.718 164.751 184.921C164.491 185.124 164.165 185.237 163.839 185.325C162.012 185.818 160.005 185.616 158.267 184.895C157.678 184.651 157.032 184.21 157.097 183.612C157.163 183.006 157.902 182.697 158.541 182.573Z" fill="#FCA175"/>
<path d="M158.798 186.33C160.342 185.424 162.298 185.154 164.057 185.603C164.696 185.766 165.39 186.109 165.511 186.716C165.631 187.316 165.132 187.864 164.615 188.236C163.101 189.325 161.086 189.785 159.205 189.471C158.573 189.365 157.893 189.126 157.614 188.588C157.4 188.174 157.483 187.665 157.733 187.269C157.984 186.872 158.381 186.575 158.798 186.33Z" fill="#FCA175"/>
<path d="M164.159 188.619C164.783 188.483 165.494 188.445 166.012 188.798C166.694 189.262 166.739 190.261 166.292 190.929C165.844 191.598 165.04 191.984 164.235 192.223C163.41 192.468 162.544 192.59 161.679 192.584C161.096 192.581 160.408 192.451 160.175 191.953C159.946 191.464 160.295 190.913 160.681 190.519C161.602 189.58 162.832 188.909 164.159 188.619Z" fill="#FCA175"/>
<path d="M167.498 192.384C167.072 193.719 165.832 194.799 164.375 195.104C163.839 195.217 163.187 195.193 162.856 194.783C162.49 194.332 162.721 193.679 163.042 193.199C163.751 192.139 164.859 191.317 166.125 190.91C166.42 190.816 166.747 190.744 167.037 190.85C167.329 190.957 167.522 191.232 167.583 191.519C167.644 191.806 167.588 192.104 167.498 192.384Z" fill="#FCA175"/>
<path d="M250.745 171.886C249.353 169.91 247.966 167.931 246.611 165.93C243.956 162.011 241.286 158.034 239.239 153.8C239.036 153.382 237.114 150.893 236.918 150.451C241.701 147.35 248.062 146.23 252.494 143.023C258.307 138.816 264.079 134.206 271.357 132.195L281.692 135.3C284.053 142.057 281.428 149.567 276.465 155.3C271.501 161.033 264.444 165.241 257.198 168.872C255.091 169.928 252.929 170.919 250.745 171.886Z" fill="#FFB204"/>
<path d="M250.745 171.886C249.353 169.91 247.966 167.931 246.61 165.93C246.32 165.502 246.031 165.073 245.742 164.644C257.072 155.905 266.691 144.673 274.407 133.111L281.692 135.299C284.053 142.057 281.428 149.566 276.465 155.299C271.501 161.033 264.444 165.24 257.197 168.871C255.091 169.928 252.928 170.919 250.745 171.886Z" fill="#E07E58"/>
<path d="M244.199 149.64L243.746 149.775L250.568 169.679L251.021 169.544L244.199 149.64Z" fill="#331827"/>
<path d="M263.166 241.405C243.211 232.543 226.108 208.613 202.354 214.817C197.603 216.589 196.653 225.452 193.802 230.769C188.868 223.481 182.152 218.189 174.583 213.951C175.282 210.239 176.02 206.517 176.801 202.783C182.271 199.185 188.047 195.981 194.036 193.214C217.822 204.306 249.675 228.181 249.675 228.181L255.343 221.47L279.207 225.213C278.439 233.985 273.576 245.451 263.166 241.405Z" fill="#331827"/>
<path d="M241.408 217.3C242.895 195.293 246.404 171.594 255.965 151.525C259.632 143.827 261.194 135.958 268.808 131.498C274.005 128.455 282.791 125.168 288.881 124.398C292.427 123.95 299.582 126.118 303.015 127.113C308.652 128.748 309.55 133.317 311.675 138.487C314.383 145.075 314.676 152.343 313.684 159.309C312.693 166.275 310.467 173.015 308.25 179.718C305.317 188.588 302.383 197.458 299.45 206.328C298.924 215.446 299.698 237.202 300.64 246.304C279.355 245.11 240.182 222.193 241.408 217.3Z" fill="#176C73"/>
<path d="M283.119 218.362C288.82 194.433 283.119 171.39 283.119 148.347C283.119 138.242 294.815 128.821 306.666 129.049C309.221 131.275 310.127 134.718 311.675 138.487C314.383 145.074 314.676 152.343 313.684 159.309C312.692 166.275 310.467 173.015 308.25 179.718C305.317 188.588 302.383 197.458 299.45 206.328C298.924 215.446 299.698 237.202 300.64 246.304C295.97 246.042 290.438 244.734 284.66 242.8C284.463 242.332 284.266 241.864 284.07 241.406C281.219 234.315 281.219 226.338 283.119 218.362Z" fill="#0E5759"/>
<path d="M293.339 128.145C287.971 132.457 281.918 136.148 275.395 139.089C273.295 140.035 271.143 140.906 268.906 141.588C268.009 141.861 266.964 142.095 266.144 141.68C264.989 141.096 265.046 139.655 265.448 138.564C267.132 133.996 271.966 130.866 276.622 128.177C279.131 126.728 281.718 125.296 284.627 124.568C287.537 123.84 290.859 123.901 293.402 125.307C293.843 125.551 294.282 125.865 294.411 126.299C294.618 126.999 293.956 127.649 293.339 128.145Z" fill="#FCA175"/>
<path d="M204.33 164.243L248.674 156.39C249.765 156.197 250.41 155.135 250.026 154.163L238.492 124.91C238.158 124.063 237.165 123.614 236.245 123.894L189.479 138.145C188.396 138.475 187.911 139.648 188.475 140.571L202.433 163.425C202.812 164.048 203.575 164.376 204.33 164.243Z" fill="#AC6E5F"/>
<path d="M203.776 165.055L248.119 157.203C249.211 157.009 249.856 155.948 249.472 154.975L237.938 125.723C237.604 124.875 236.611 124.426 235.691 124.707L188.925 138.957C187.842 139.287 187.357 140.46 187.921 141.383L201.879 164.237C202.258 164.861 203.021 165.189 203.776 165.055Z" fill="#331827"/>
<path d="M209.777 135.26C210.117 135.835 210.766 136.11 211.226 135.874C211.685 135.637 211.781 134.978 211.44 134.403C211.1 133.827 210.45 133.552 209.992 133.789C209.532 134.025 209.436 134.683 209.777 135.26Z" fill="#AC6E5F"/>
<path d="M238.003 131.763C238.037 131.849 237.989 131.944 237.896 131.975C237.804 132.007 237.702 131.962 237.668 131.876L236.067 127.762C236.033 127.676 236.082 127.581 236.173 127.55C236.266 127.519 236.368 127.563 236.402 127.649L238.003 131.763Z" fill="#AC6E5F"/>
<path d="M236.757 132.095C236.79 132.181 236.743 132.276 236.65 132.308C236.557 132.339 236.456 132.294 236.422 132.208L234.821 128.095C234.787 128.008 234.835 127.914 234.928 127.882C235.021 127.85 235.123 127.895 235.156 127.982L236.757 132.095Z" fill="#AC6E5F"/>
<path d="M235.509 132.428C235.543 132.514 235.495 132.609 235.402 132.641C235.309 132.672 235.207 132.627 235.174 132.541L233.573 128.428C233.539 128.341 233.587 128.247 233.68 128.215C233.773 128.183 233.874 128.228 233.908 128.315L235.509 132.428Z" fill="#AC6E5F"/>
<path d="M234.262 132.76C234.296 132.846 234.248 132.941 234.156 132.972C234.064 133.004 233.961 132.959 233.928 132.873L232.327 128.759C232.293 128.673 232.342 128.577 232.434 128.547C232.527 128.515 232.629 128.56 232.662 128.646L234.262 132.76Z" fill="#AC6E5F"/>
<path d="M242.735 257.435L243.108 257.162C239.636 253.036 240.33 247.466 242.138 243.631C244.236 239.179 247.978 235.548 251.595 232.036L251.251 231.73C247.606 235.269 243.834 238.929 241.703 243.453C239.84 247.406 239.132 253.156 242.735 257.435Z" fill="#331827"/>
<path d="M199.071 209.78C197.976 215.906 196.031 221.916 193.294 227.632C184.173 217.404 173.468 208.269 161.567 200.56C166.002 194.18 171.121 187.316 179.25 185.117C187.612 182.856 196.507 186.267 204.126 190.048C217.499 196.684 229.918 204.688 242.301 212.672C241.035 190.749 243.734 173.049 252.027 152.344C260.098 152.292 268.157 151.142 275.832 148.95C274.31 157.507 275.173 166.382 278.322 174.588C279.925 178.764 282.123 182.819 282.768 187.19C283.314 190.891 282.716 194.641 282.12 198.337C279.977 211.6 278.786 220.429 276.645 233.693C276.214 236.36 275.594 239.317 273.129 240.917C269.646 243.177 264.729 241.432 261.05 239.427C250.876 233.882 242.006 226.684 232.175 220.681C222.343 214.676 211.041 209.768 199.071 209.78Z" fill="#674138"/>
<path d="M257.826 151.088C257.624 151.562 257.411 152.051 257.017 152.404C256.138 153.191 254.733 153.032 253.536 152.82C256.296 146.247 260.131 140.068 264.866 134.562C262.519 140.07 260.172 145.58 257.826 151.088Z" fill="#674138"/>
<path d="M292.924 125.701C293.638 125.217 294.394 124.731 295.265 124.594C296.136 124.458 297.152 124.776 297.51 125.529C288.218 132.504 280.3 141.066 274.263 150.661C272.561 150.67 270.859 150.679 269.157 150.688C275.017 140.886 283.188 132.294 292.924 125.701Z" fill="#674138"/>
<path d="M248.094 170.018C255.336 171.093 262.578 172.169 269.821 173.245C266.123 174.222 262.242 174.753 258.424 174.342C254.606 173.931 250.843 172.524 248.094 170.018Z" fill="#331827"/>
<path d="M270.071 173.399C270.968 173.887 271.368 174.881 271.704 175.798C272.917 179.113 274.135 182.448 274.718 185.908C275.3 189.367 275.219 192.994 273.882 196.267C265.57 193.23 256.764 191.371 247.859 190.771C249.023 183.89 248.994 176.833 247.773 169.961C253.706 172.754 260.527 173.884 267.129 173.169C268.126 173.061 269.205 172.927 270.071 173.399Z" fill="#AC6E5F"/>
<path d="M193.352 221.35C192.725 222.854 192.06 224.346 191.351 225.821L191.786 226.002C192.47 224.58 193.111 223.141 193.72 221.69C194.25 222.182 194.777 222.674 195.295 223.169L195.635 222.86C195.068 222.318 194.493 221.779 193.913 221.242C195.926 216.372 197.51 211.358 198.636 206.278C209.054 207.055 219.851 211.017 231.634 218.382C236.778 221.596 241.735 225.186 246.53 228.658C250.978 231.88 255.578 235.211 260.321 238.239C262.644 239.722 265.541 241.293 268.454 241.293C269.151 241.293 269.847 241.204 270.537 241.001C271.221 240.802 271.826 240.497 272.375 240.132C272.473 240.261 272.575 240.387 272.671 240.516L273.061 240.262C272.959 240.127 272.852 239.995 272.751 239.861C273.132 239.57 273.474 239.246 273.784 238.898C274.343 239.723 274.813 240.596 275.131 241.531L275.584 241.397C275.236 240.376 274.714 239.431 274.099 238.542C274.935 237.486 275.481 236.271 275.756 235.165C276.249 233.19 276.169 231.139 276.092 229.157C276.072 228.633 276.051 228.111 276.041 227.589C275.906 220.74 277.362 214.843 278.771 209.14C280.481 202.216 282.097 195.676 281.102 187.606C280.491 182.632 278.759 177.695 277.084 172.92C274.557 165.717 271.944 158.268 273.319 150.812L273.38 150.481L273.031 150.559C266.014 152.123 258.784 153.013 251.541 153.203L251.553 153.647C258.71 153.458 265.853 152.59 272.794 151.067C271.532 158.519 274.125 165.909 276.633 173.057C278.301 177.811 280.024 182.727 280.632 187.656C281.615 195.651 280.009 202.155 278.308 209.04C276.893 214.769 275.431 220.693 275.566 227.597C275.577 228.121 275.597 228.646 275.618 229.172C275.694 231.126 275.773 233.148 275.294 235.065C275.043 236.073 274.55 237.175 273.813 238.147C272.27 236.064 270.201 234.322 268.413 232.833L259.769 225.634C258.588 224.549 257.389 223.481 256.159 222.446L256.062 222.547L243.377 211.983L243.061 212.314L259.441 225.955C264.074 230.212 268.316 234.841 272.095 239.773C271.587 240.11 271.026 240.394 270.393 240.579C267.008 241.569 263.376 239.652 260.589 237.874C255.857 234.853 251.263 231.526 246.82 228.308C242.019 224.831 237.055 221.236 231.899 218.013C219.966 210.556 209.029 206.568 198.463 205.821L198.254 205.806L198.213 205.997C197.103 211.055 195.536 216.05 193.541 220.903C184.368 212.483 173.531 204.726 162.743 198.892L162.506 199.274C173.315 205.122 184.177 212.904 193.352 221.35ZM272.472 239.502C269.884 236.126 267.079 232.892 264.082 229.821L268.097 233.164C269.898 234.663 271.987 236.424 273.508 238.519C273.2 238.876 272.855 239.206 272.472 239.502Z" fill="#331827"/>
<path d="M268.48 112.852C274.676 112.715 281.545 106.162 287.396 104.255C288.932 109.63 290.395 120.354 293.115 125.305C286.171 131.722 276.819 134.712 267.135 136.052C268.298 128.374 268.754 120.603 268.48 112.852Z" fill="#FCA175"/>
<path d="M274.678 134.614C272.211 135.228 269.685 135.699 267.135 136.053C268.298 128.374 268.755 120.603 268.48 112.852C273.482 112.742 278.465 112.027 283.279 110.757C286.715 120.183 281.847 127.966 274.678 134.614Z" fill="#E07E58"/>
<path d="M267.924 129.775C268.488 124.152 268.68 118.497 268.48 112.852C272.903 112.754 277.311 112.182 281.601 111.175C282.745 113.81 283.111 116.372 282.98 118.883C279.594 124.65 274.055 128.689 267.924 129.775Z" fill="#331827"/>
<path d="M262.894 81.3868C258.833 81.755 254.766 83.1195 251.909 85.7642C249.813 87.7049 248.422 90.533 249.211 93.1545C249.627 94.5415 249.61 97.7967 250.576 99.8238C251.136 101 253.142 103.657 253.307 104.477C253.601 105.937 253.188 106.409 253.068 107.891C252.433 115.773 260.705 117.882 260.579 125.785C266.418 126.756 272.594 124.913 277.152 121.461C281.711 118.01 284.736 113.085 286.322 107.893C287.528 103.944 287.942 99.7177 286.827 95.7472C285.541 91.166 282.206 87.1175 277.826 84.5571C273.447 81.9967 268.078 80.9168 262.894 81.3868Z" fill="#FCA175"/>
<path d="M255.715 115.636C257.914 118.573 260.652 121.208 260.58 125.785C266.42 126.756 272.595 124.913 277.153 121.461C278.945 120.104 280.491 118.515 281.815 116.777C277.918 119.57 273.378 123.085 271.717 119.986C268.035 113.118 261.512 115.21 255.715 115.636ZM257.744 117.217C260.079 117.471 262.462 117.335 264.748 116.82C265.405 116.671 266.102 116.493 266.74 116.697C267.405 116.91 267.849 117.492 268.17 118.075C268.633 118.916 268.94 119.856 268.88 120.8C268.82 121.744 268.358 122.692 267.528 123.236C266.699 123.78 265.491 123.841 264.685 123.267C263.987 122.77 263.698 121.935 263.33 121.19C262.963 120.445 262.853 120.802 261.977 120.724C262.609 121.844 262.498 121.959 262.593 123.221C262.627 123.662 262.495 124.249 262.023 124.284C261.679 124.309 261.424 124.002 261.243 123.727C259.877 121.658 258.705 119.476 257.744 117.217Z" fill="#AC6E5F"/>
<path d="M255.435 85.8008C256.054 84.9485 257.088 84.4566 258.083 84.0133C264.242 81.2709 270.652 79.0225 277.222 77.2997C278.853 76.8718 280.573 76.4748 282.224 76.8317C284.88 77.4065 286.613 79.7329 287.998 81.9237C291.023 86.7093 293.694 91.9122 293.915 97.4644C294.136 103.017 293.5 107.544 288.109 109.904C286.197 106.622 281.391 105.18 278.218 102.903C278.212 104.354 278.447 105.804 278.927 107.183C277.968 107.093 276.974 107.398 276.26 108.001C276.386 105.918 275.583 103.859 274.395 102.091C273.824 101.24 273.165 100.45 272.465 99.6882C269.394 98.4108 266.106 97.6302 263.037 96.3479C259.935 95.0516 256.956 93.1081 255.497 90.2442C254.782 88.8446 254.504 87.0859 255.435 85.8008Z" fill="#674138"/>
<path d="M281.795 94.6897C284.799 95.6235 288.805 99.3601 292.811 98.4263C293.199 98.3357 293.564 98.1909 293.918 98.0209C293.94 103.41 293.439 107.733 288.226 110.015C286.315 106.733 281.391 105.18 278.217 102.903C278.211 104.354 278.446 105.804 278.926 107.183C277.967 107.093 276.974 107.398 276.259 108.001C276.385 105.918 275.583 103.859 274.395 102.091C273.824 101.24 273.165 100.45 272.464 99.6882C269.394 98.4108 266.106 97.6302 263.037 96.3479C262.282 96.0324 261.535 95.6769 260.814 95.2806C267.473 96.7161 274.634 92.4631 281.795 94.6897Z" fill="#331827"/>
<path d="M242.582 84.5206C243.303 85.252 244.348 85.6961 245.413 85.7235C243.134 86.2842 240.692 86.2533 238.43 85.635C239.627 88.0731 241.83 90.0678 244.479 91.1105C242.734 90.899 241.03 90.3995 239.47 89.642C243.004 93.3688 248.98 94.3763 254.2 93.3568C259.546 92.312 264.612 89.5212 268.205 86.4036C272.111 83.0148 276.431 79.9943 281.126 77.632C275.815 73.9481 268.446 73.0164 262.276 75.2487C255.36 77.7493 249.965 83.8587 242.582 84.5206Z" fill="#674138"/>
<path d="M263.571 82.4429C261.776 82.7837 260.23 83.8011 258.609 84.5965C256.988 85.3925 255.069 85.9849 253.345 85.4059C255.197 84.7138 257.05 84.0217 258.902 83.3296C259.58 83.0767 260.284 82.8055 260.763 82.2911C261.035 81.9988 261.222 81.637 261.538 81.3855C262.199 80.8578 263.183 80.9646 264.026 80.7636C265.831 80.3322 266.902 78.5047 268.659 77.9243C269.223 77.7381 269.889 77.6594 270.253 77.2161C270.495 76.9216 270.547 76.5219 270.776 76.219C271.192 75.6696 272.037 75.6035 272.752 75.6899C274.583 75.912 276.309 76.8177 277.463 78.1625C275.593 78.0241 273.723 77.8857 271.854 77.7472C271.321 77.7079 270.674 77.7184 270.395 78.1442C270.182 78.4695 270.292 78.8946 270.168 79.2579C269.918 79.9858 268.906 80.1537 268.086 80.1404C267.268 80.1263 266.292 80.1256 265.831 80.7573C265.609 81.0608 265.564 81.455 265.334 81.7529C264.951 82.2476 264.212 82.3214 263.571 82.4429Z" fill="#AC6E5F"/>
<path d="M251.309 86.1387C247.771 87.003 244.029 87.1316 240.432 86.5132C241.976 87.6634 243.97 88.2761 245.945 88.208C247.92 88.1398 249.86 87.3915 251.309 86.1387Z" fill="#AC6E5F"/>
<path d="M245.887 84.841C246.669 85.2569 247.623 85.3827 248.498 85.1874C247.693 84.8269 246.768 84.7039 245.887 84.841Z" fill="#AC6E5F"/>
<path d="M282.349 79.13C285.364 80.1664 287.771 82.627 288.6 85.5232C286.517 83.3921 284.432 81.2611 282.349 79.13Z" fill="#AC6E5F"/>
<path d="M268.447 85.6392C268.683 85.1796 269.336 85.0862 269.881 85.1122C270.427 85.1382 271.034 85.2049 271.462 84.8887C271.829 84.6161 271.942 84.1411 272.241 83.8032C272.935 83.0169 274.261 83.2418 275.306 83.5376C275.276 83.0872 275.775 82.7619 276.244 82.6509C276.712 82.5399 277.229 82.5356 277.629 82.282C278.322 81.8429 278.359 80.8683 278.962 80.3259C279.497 79.8453 280.367 79.8284 281.05 80.0996C281.733 80.3716 282.272 80.8767 282.793 81.37C284.093 82.6017 285.46 83.9535 285.732 85.663C283.954 84.0997 281.76 82.9495 279.404 82.3438C279.641 82.9291 279.882 83.532 279.868 84.1573C279.854 84.7826 279.525 85.4438 278.909 85.6904C277.797 86.1345 276.552 85.0574 275.375 85.3159C275.63 85.6567 275.384 86.1591 274.996 86.3629C274.608 86.5666 274.138 86.5582 273.693 86.5589C273.248 86.5596 272.771 86.5842 272.416 86.835C271.887 87.2088 271.771 87.9887 271.171 88.2529C270.737 88.444 270.229 88.2831 269.75 88.2684C268.815 88.2396 267.969 88.7764 267.291 89.3785C266.614 89.98 266.012 90.6791 265.201 91.114C264.39 91.549 263.267 91.6459 262.583 91.0508C262.46 90.1866 262.138 89.3469 261.646 88.6049C263.261 88.2944 264.876 87.9838 266.491 87.6733C267.219 87.5334 268.077 87.2868 268.28 86.6193C268.377 86.2982 268.293 85.9385 268.447 85.6392Z" fill="#AC6E5F"/>
<path d="M277.736 103C278.104 101.273 277.619 100.028 279.138 99.0039C280.658 97.9801 283.001 97.9253 284.251 99.2336C285.242 100.27 285.318 101.804 285.266 103.198C285.198 105.048 284.971 106.966 283.951 108.548C282.931 110.131 280.922 111.279 279.013 110.845L277.736 103Z" fill="#FCA175"/>
<path d="M279.607 103.435C279.992 103.721 280.569 103.838 280.751 104.264C281.025 104.907 280.146 105.484 280.065 106.172C279.987 106.826 280.634 107.338 281.228 107.694C281.821 108.049 282.5 108.485 282.541 109.142C282.887 107.738 283.234 106.332 283.58 104.928C283.684 104.505 283.789 104.065 283.684 103.642C283.471 102.782 282.275 102.282 281.445 102.707C282.021 102.313 282.615 101.898 282.951 101.31C283.287 100.722 283.281 99.9067 282.741 99.4697C282.299 99.1113 281.617 99.1064 281.086 99.3362C280.555 99.5659 280.15 99.9896 279.806 100.432C279.457 100.882 279.148 101.379 279.06 101.928C278.972 102.477 279.141 103.088 279.607 103.435Z" fill="#331827"/>
<path d="M264.727 100.128C264.608 100.553 264.624 101.023 264.769 101.437C262.5 101.294 260.213 101.519 258 102.102C257.652 101.424 257.305 100.747 256.958 100.069C259.527 99.5913 262.165 99.6109 264.727 100.128Z" fill="#674138"/>
<path d="M252.793 102.556C252.654 101.816 251.792 101.317 251.447 100.784C251.803 100.848 252.616 100.739 252.95 100.523C253.184 101.181 253.369 101.886 253.499 102.617C253.227 102.544 253.05 102.515 252.793 102.556Z" fill="#674138"/>
<path d="M257.782 114.701C257.87 114.701 257.961 114.699 258.052 114.696C259.462 114.643 260.843 114.327 262.18 114.023L262.067 113.593C260.754 113.893 259.396 114.202 258.034 114.253C256.797 114.306 256.065 114.02 254.955 113.378C255.195 112.093 255.292 110.823 255.388 109.593C255.485 108.33 255.587 107.024 255.842 105.713C255.982 104.993 256.142 104.176 255.9 103.391C255.56 102.281 254.54 101.552 253.435 100.841L253.166 101.206C254.196 101.869 255.146 102.545 255.444 103.514C255.655 104.199 255.506 104.961 255.374 105.635C255.115 106.969 255.014 108.287 254.914 109.562C254.817 110.827 254.715 112.135 254.459 113.447L254.431 113.595L254.567 113.674C255.732 114.359 256.541 114.701 257.782 114.701Z" fill="#331827"/>
<path d="M263.747 103.37C264.123 103.591 264.373 103.959 264.553 104.34C264.702 104.654 264.812 104.982 264.882 105.32C264.914 105.474 264.935 105.643 264.849 105.777C264.689 106.027 264.29 105.994 263.997 105.893C263.054 105.571 262.263 104.882 261.853 104.028C261.705 103.721 261.645 103.286 261.955 103.113C262.106 103.029 262.295 103.043 262.471 103.06C262.912 103.102 263.371 103.15 263.747 103.37Z" fill="#331827"/>
<path d="M254.297 104.082C254.611 104.695 254.789 105.368 254.817 106.047C254.825 106.251 254.78 106.508 254.569 106.564C254.384 106.614 254.209 106.466 254.093 106.322C253.592 105.702 253.367 104.893 253.484 104.123C253.509 103.957 253.572 103.768 253.741 103.711C253.976 103.633 254.188 103.872 254.297 104.082Z" fill="#331827"/>
<path d="M266.651 118.446C266.387 118.809 265.902 118.929 265.458 119.023C263.368 119.467 261.118 119.898 259.153 119.07C258.936 118.559 258.611 118.091 258.206 117.706C261.042 117.752 263.965 117.783 266.601 116.753C266.806 117.307 266.999 117.967 266.651 118.446Z" fill="#331827"/>
<path d="M209.463 159.35C209.773 158.726 210.935 158.899 210.935 158.899C210.935 158.899 210.614 158.421 210.158 157.925C209.701 157.429 209.561 157.116 209.397 156.494C209.217 155.811 209.698 155.355 210.394 155.256C211.343 155.121 212.07 155.74 212.862 156.109C213.408 156.364 214.428 156.787 214.825 157.21C214.315 156.667 214.095 155.722 214.761 155.331C215.427 154.939 216.279 155.178 217.023 155.437C217.767 155.696 218.4 156.147 219.043 156.566C222.249 158.656 226.695 159.845 230.673 160.134C234.651 160.423 235.907 159.425 242.024 158.207C242.81 161.904 243.954 164.635 245.633 168.094C249.112 170.277 252.526 172.327 255.865 174.482C265.927 180.979 277.028 186.108 288.081 191.211C287.737 184.689 287.392 178.166 287.047 171.644C297.033 173.09 307.019 174.258 317.004 177.16C314.817 190.199 310.498 203.191 305.254 213.178C303.996 215.575 299.262 216.195 296.485 217.201C292.191 218.756 287.328 217.152 283.118 215.427C271.986 210.867 255.108 191.033 239.116 178.274C235.961 175.758 231.609 174.708 228.107 173.365C224.789 172.414 222.453 171.089 219.398 169.617C215.567 167.771 211.94 164.75 210.134 161.253C209.813 160.633 209.154 159.974 209.463 159.35Z" fill="#FCA175"/>
<path d="M220.407 168.731C225.439 170.743 230.332 173.01 234.681 175.768C232.47 174.838 230.146 174.148 228.107 173.366C224.789 172.414 222.452 171.09 219.398 169.618C215.605 167.789 212.017 164.809 210.193 161.356C213.31 164.664 216.544 167.29 220.407 168.731Z" fill="#E07E58"/>
<path d="M302.713 173.979C307.476 174.793 312.24 175.777 317.003 177.161C314.816 190.2 310.497 203.192 305.253 213.179C303.995 215.576 299.261 216.196 296.484 217.201C292.19 218.756 287.327 217.153 283.118 215.428C273.008 211.287 258.161 194.551 243.54 181.954C261.362 191.537 274.153 209.775 293.988 213.566C302.735 201.552 302.989 187.879 302.713 173.979Z" fill="#E07E58"/>
<path d="M287.046 171.644C297.032 173.09 307.018 174.258 317.004 177.16C316.726 178.81 316.415 180.46 316.072 182.103C307.327 177.813 297.25 176.417 287.262 175.708C287.19 174.353 287.118 172.999 287.046 171.644Z" fill="#331827"/>
<path d="M231.797 160.386C234.408 160.612 236.843 159.202 239.429 158.802C238.712 160.231 238.317 161.801 238.277 163.378C235.912 162.855 233.678 161.824 231.797 160.386Z" fill="#E07E58"/>
<path d="M212.555 157.236C211.79 156.629 211.026 156.02 210.261 155.412C211.891 155.488 213.418 156.2 214.744 157.087C216.07 157.975 217.244 159.044 218.535 159.976C220.695 161.535 223.155 162.687 225.596 163.83C223.087 163.651 220.689 162.736 218.542 161.512C216.395 160.289 214.47 158.759 212.555 157.236Z" fill="#E07E58"/>
<path d="M211.316 159.089C214.944 162.132 219.047 164.682 223.455 166.633C222.047 166.94 220.549 166.676 219.229 166.127C217.908 165.577 216.742 164.756 215.616 163.909C213.849 162.579 212.087 161.081 211.316 159.089Z" fill="#E07E58"/>
<path d="M285.58 153.582C285.213 146.627 284.987 139.172 289.227 133.291C291.588 130.016 295.505 127.404 299.91 127.198C304.212 126.996 308.339 129.119 311.09 132.034C313.841 134.95 315.547 138.545 316.644 142.208C319.74 152.539 319.621 165.603 317.436 178.621C307.159 175.635 296.881 174.433 286.603 172.944C286.262 166.491 285.921 160.036 285.58 153.582Z" fill="#FFB204"/>
<path d="M308.715 129.972C309.583 130.591 310.383 131.286 311.089 132.035C313.84 134.95 315.547 138.546 316.643 142.208C319.739 152.539 319.62 165.603 317.435 178.622C314.661 177.816 311.888 177.147 309.114 176.561C313.427 160.719 315.112 144.999 308.715 129.972Z" fill="#E07E58"/>
<path d="M286.33 166.616C296.434 167.997 307.125 170.329 318.125 173.55C318.108 173.7 318.091 173.849 318.076 173.999C307.108 170.782 296.449 168.454 286.374 167.07C286.36 166.92 286.345 166.768 286.33 166.616Z" fill="#331827"/>
</svg>
